<?xml version="1.0" encoding="us-ascii" standalone="no"?><svg xmlns="http://www.w3.org/2000/svg" xmlns:xlink="http://www.w3.org/1999/xlink" contentStyleType="text/css" height="1158px" preserveAspectRatio="none" style="width:596px;height:1158px;background:#FFFFFF;" version="1.1" viewBox="0 0 596 1158" width="596px" zoomAndPan="magnify"><defs/><g><rect fill="none" height="22.6406" style="stroke:none;stroke-width:1.0;" width="563" x="15" y="12.4551"/><ellipse cx="224" cy="50.0957" fill="#222222" rx="10" ry="10" style="stroke:#222222;stroke-width:1.0;"/><rect fill="#F1F1F1" height="65.2813" rx="12.5" ry="12.5" style="stroke:#181818;stroke-width:0.5;" width="208" x="120" y="80.0957"/><text fill="#000000" font-family="sans-serif" font-size="12" lengthAdjust="spacing" textLength="140" x="130" y="102.5527">&#1054;&#1090;&#1087;&#1088;&#1072;&#1074;&#1080;&#1090;&#1100; &#1059;&#1062; &#1079;&#1072;&#1087;&#1088;&#1086;&#1089; &#1085;&#1072;</text><text fill="#000000" font-family="sans-serif" font-size="12" lengthAdjust="spacing" textLength="188" x="130" y="117.6465">&#1074;&#1099;&#1087;&#1091;&#1089;&#1082; &#1057;&#1050;&#1055;&#1069;&#1055; &#1080; &#1087;&#1086;&#1076;&#1090;&#1074;&#1077;&#1088;&#1078;&#1076;&#1077;&#1085;&#1080;&#1077;</text><text fill="#000000" font-family="sans-serif" font-size="12" lengthAdjust="spacing" textLength="95" x="130" y="132.7402">&#1040;&#1076;&#1084;&#1080;&#1085;&#1080;&#1089;&#1090;&#1088;&#1072;&#1090;&#1086;&#1088;&#1072;</text><rect fill="#F1F1F1" height="50.1875" rx="12.5" ry="12.5" style="stroke:#181818;stroke-width:0.5;" width="117" x="165.5" y="428.5293"/><text fill="#000000" font-family="sans-serif" font-size="12" lengthAdjust="spacing" textLength="97" x="175.5" y="450.9863">&#1055;&#1086;&#1083;&#1091;&#1095;&#1080;&#1090;&#1100; &#1086;&#1096;&#1080;&#1073;&#1082;&#1091;</text><text fill="#000000" font-family="sans-serif" font-size="12" lengthAdjust="spacing" textLength="75" x="175.5" y="466.0801">&#1087;&#1088;&#1086;&#1074;&#1077;&#1088;&#1082;&#1080; &#1069;&#1055;</text><path d="M32,488.7168 L32,547.7715 A0,0 0 0 0 32,547.7715 L193,547.7715 A0,0 0 0 0 193,547.7715 L193,522.2441 L213,518.2441 L193,514.2441 L193,498.7168 L183,488.7168 L32,488.7168 A0,0 0 0 0 32,488.7168 " fill="#FEFFDD" style="stroke:#181818;stroke-width:0.5;"/><path d="M183,488.7168 L183,498.7168 L193,498.7168 L183,488.7168 " fill="#FEFFDD" style="stroke:#181818;stroke-width:0.5;"/><text fill="#000000" font-family="sans-serif" font-size="13" lengthAdjust="spacing" textLength="107" x="38" y="507.2119">&#1055;&#1086;&#1083;&#1091;&#1095;&#1077;&#1085;&#1072; &#1086;&#1096;&#1080;&#1073;&#1082;&#1072;</text><text fill="#000000" font-family="sans-serif" font-size="13" lengthAdjust="spacing" textLength="140" x="38" y="523.5635">&#1087;&#1088;&#1086;&#1074;&#1077;&#1088;&#1082;&#1080; &#1069;&#1055; &#1074; &#1079;&#1072;&#1087;&#1088;&#1086;&#1089;&#1077;</text><text fill="#000000" font-family="sans-serif" font-size="13" lengthAdjust="spacing" textLength="109" x="38" y="539.915">&#1085;&#1072; &#1074;&#1099;&#1087;&#1091;&#1089;&#1082; &#1057;&#1050;&#1055;&#1069;&#1055;</text><ellipse cx="224" cy="518.2441" fill="none" rx="11" ry="11" style="stroke:#222222;stroke-width:1.0;"/><ellipse cx="224" cy="518.2441" fill="#222222" rx="6" ry="6" style="stroke:#222222;stroke-width:1.0;"/><rect fill="#F1F1F1" height="65.2813" rx="12.5" ry="12.5" style="stroke:#181818;stroke-width:0.5;" width="167" x="140.5" y="782.7363"/><text fill="#000000" font-family="sans-serif" font-size="12" lengthAdjust="spacing" textLength="97" x="150.5" y="805.1934">&#1055;&#1086;&#1083;&#1091;&#1095;&#1080;&#1090;&#1100; &#1086;&#1096;&#1080;&#1073;&#1082;&#1091;</text><text fill="#000000" font-family="sans-serif" font-size="12" lengthAdjust="spacing" textLength="147" x="150.5" y="820.2871">&#1087;&#1088;&#1086;&#1074;&#1077;&#1088;&#1082;&#1080; &#1087;&#1086;&#1076;&#1090;&#1074;&#1077;&#1088;&#1078;&#1076;&#1077;&#1085;&#1080;&#1103;</text><text fill="#000000" font-family="sans-serif" font-size="12" lengthAdjust="spacing" textLength="95" x="150.5" y="835.3809">&#1040;&#1076;&#1084;&#1080;&#1085;&#1080;&#1089;&#1090;&#1088;&#1072;&#1090;&#1086;&#1088;&#1072;</text><path d="M20,858.0176 L20,917.0723 A0,0 0 0 0 20,917.0723 L193,917.0723 A0,0 0 0 0 193,917.0723 L193,891.5449 L213,887.5449 L193,883.5449 L193,868.0176 L183,858.0176 L20,858.0176 A0,0 0 0 0 20,858.0176 " fill="#FEFFDD" style="stroke:#181818;stroke-width:0.5;"/><path d="M183,858.0176 L183,868.0176 L193,868.0176 L183,858.0176 " fill="#FEFFDD" style="stroke:#181818;stroke-width:0.5;"/><text fill="#000000" font-family="sans-serif" font-size="13" lengthAdjust="spacing" textLength="107" x="26" y="876.5127">&#1055;&#1086;&#1083;&#1091;&#1095;&#1077;&#1085;&#1072; &#1086;&#1096;&#1080;&#1073;&#1082;&#1072;</text><text fill="#000000" font-family="sans-serif" font-size="13" lengthAdjust="spacing" textLength="152" x="26" y="892.8643">&#1087;&#1088;&#1086;&#1074;&#1077;&#1088;&#1082;&#1080; &#1087;&#1086;&#1076;&#1090;&#1074;&#1077;&#1088;&#1078;&#1076;&#1077;&#1085;&#1080;&#1103;</text><text fill="#000000" font-family="sans-serif" font-size="13" lengthAdjust="spacing" textLength="99" x="26" y="909.2158">&#1040;&#1076;&#1084;&#1080;&#1085;&#1080;&#1089;&#1090;&#1088;&#1072;&#1090;&#1086;&#1088;&#1072;</text><ellipse cx="224" cy="887.5449" fill="none" rx="11" ry="11" style="stroke:#222222;stroke-width:1.0;"/><ellipse cx="224" cy="887.5449" fill="#222222" rx="6" ry="6" style="stroke:#222222;stroke-width:1.0;"/><rect fill="#F1F1F1" height="35.0938" rx="12.5" ry="12.5" style="stroke:#181818;stroke-width:0.5;" width="119" x="164.5" y="1069.2598"/><text fill="#000000" font-family="sans-serif" font-size="12" lengthAdjust="spacing" textLength="99" x="174.5" y="1091.7168">&#1055;&#1086;&#1083;&#1091;&#1095;&#1080;&#1090;&#1100; &#1057;&#1050;&#1055;&#1069;&#1055;</text><ellipse cx="224" cy="1135.3535" fill="none" rx="11" ry="11" style="stroke:#222222;stroke-width:1.0;"/><ellipse cx="224" cy="1135.3535" fill="#222222" rx="6" ry="6" style="stroke:#222222;stroke-width:1.0;"/><line style="stroke:#000000;stroke-width:1.5;" x1="15" x2="15" y1="12.4551" y2="1146.3535"/><rect fill="#F1F1F1" height="65.2813" rx="12.5" ry="12.5" style="stroke:#181818;stroke-width:0.5;" width="208" x="339.5" y="165.377"/><text fill="#000000" font-family="sans-serif" font-size="12" lengthAdjust="spacing" textLength="113" x="349.5" y="187.834">&#1055;&#1086;&#1083;&#1091;&#1095;&#1080;&#1090;&#1100; &#1079;&#1072;&#1087;&#1088;&#1086;&#1089; &#1085;&#1072;</text><text fill="#000000" font-family="sans-serif" font-size="12" lengthAdjust="spacing" textLength="188" x="349.5" y="202.9277">&#1074;&#1099;&#1087;&#1091;&#1089;&#1082; &#1057;&#1050;&#1055;&#1069;&#1055; &#1080; &#1087;&#1086;&#1076;&#1090;&#1074;&#1077;&#1088;&#1078;&#1076;&#1077;&#1085;&#1080;&#1077;</text><text fill="#000000" font-family="sans-serif" font-size="12" lengthAdjust="spacing" textLength="95" x="349.5" y="218.0215">&#1040;&#1076;&#1084;&#1080;&#1085;&#1080;&#1089;&#1090;&#1088;&#1072;&#1090;&#1086;&#1088;&#1072;</text><rect fill="#F1F1F1" height="50.1875" rx="12.5" ry="12.5" style="stroke:#181818;stroke-width:0.5;" width="179" x="354" y="250.6582"/><text fill="#000000" font-family="sans-serif" font-size="12" lengthAdjust="spacing" textLength="159" x="364" y="273.1152">&#1055;&#1088;&#1086;&#1074;&#1077;&#1088;&#1080;&#1090;&#1100; &#1069;&#1055; &#1074; &#1079;&#1072;&#1087;&#1088;&#1086;&#1089;&#1077; &#1085;&#1072;</text><text fill="#000000" font-family="sans-serif" font-size="12" lengthAdjust="spacing" textLength="85" x="364" y="288.209">&#1074;&#1099;&#1087;&#1091;&#1089;&#1082; &#1057;&#1050;&#1055;&#1069;&#1055;</text><rect fill="#F1F1F1" height="35.0938" rx="12.5" ry="12.5" style="stroke:#181818;stroke-width:0.5;" width="188" x="349.5" y="373.4355"/><text fill="#000000" font-family="sans-serif" font-size="12" lengthAdjust="spacing" textLength="168" x="359.5" y="395.8926">&#1042;&#1077;&#1088;&#1085;&#1091;&#1090;&#1100; &#1086;&#1096;&#1080;&#1073;&#1082;&#1091; &#1087;&#1088;&#1086;&#1074;&#1077;&#1088;&#1082;&#1080; &#1069;&#1055;</text><polygon fill="#F1F1F1" points="397,320.8457,490,320.8457,502,334.6816,490,348.5176,397,348.5176,385,334.6816,397,320.8457" style="stroke:#181818;stroke-width:0.5;"/><text fill="#000000" font-family="sans-serif" font-size="11" lengthAdjust="spacing" textLength="14" x="447.5" y="359.9365">&#1044;&#1072;</text><text fill="#000000" font-family="sans-serif" font-size="11" lengthAdjust="spacing" textLength="88" x="397" y="332.2646">&#1055;&#1088;&#1080; &#1087;&#1088;&#1086;&#1074;&#1077;&#1088;&#1082;&#1077; &#1069;&#1055;</text><text fill="#000000" font-family="sans-serif" font-size="11" lengthAdjust="spacing" textLength="93" x="397" y="346.1006">&#1074;&#1086;&#1079;&#1085;&#1080;&#1082;&#1083;&#1072; &#1086;&#1096;&#1080;&#1073;&#1082;&#1072;?</text><rect fill="#F1F1F1" height="50.1875" rx="12.5" ry="12.5" style="stroke:#181818;stroke-width:0.5;" width="211" x="338" y="589.7715"/><text fill="#000000" font-family="sans-serif" font-size="12" lengthAdjust="spacing" textLength="191" x="348" y="612.2285">&#1042;&#1077;&#1088;&#1080;&#1092;&#1080;&#1094;&#1080;&#1088;&#1086;&#1074;&#1072;&#1090;&#1100; &#1087;&#1086;&#1076;&#1090;&#1074;&#1077;&#1088;&#1078;&#1076;&#1077;&#1085;&#1080;&#1077;</text><text fill="#000000" font-family="sans-serif" font-size="12" lengthAdjust="spacing" textLength="95" x="348" y="627.3223">&#1040;&#1076;&#1084;&#1080;&#1085;&#1080;&#1089;&#1090;&#1088;&#1072;&#1090;&#1086;&#1088;&#1072;</text><rect fill="#F1F1F1" height="50.1875" rx="12.5" ry="12.5" style="stroke:#181818;stroke-width:0.5;" width="208" x="339.5" y="712.5488"/><text fill="#000000" font-family="sans-serif" font-size="12" lengthAdjust="spacing" textLength="170" x="349.5" y="735.0059">&#1042;&#1077;&#1088;&#1085;&#1091;&#1090;&#1100; &#1086;&#1096;&#1080;&#1073;&#1082;&#1091; &#1074;&#1077;&#1088;&#1080;&#1092;&#1080;&#1082;&#1072;&#1094;&#1080;&#1080;</text><text fill="#000000" font-family="sans-serif" font-size="12" lengthAdjust="spacing" textLength="188" x="349.5" y="750.0996">&#1087;&#1086;&#1076;&#1090;&#1074;&#1077;&#1088;&#1078;&#1076;&#1077;&#1085;&#1080;&#1103; &#1040;&#1076;&#1084;&#1080;&#1085;&#1080;&#1089;&#1090;&#1088;&#1072;&#1090;&#1086;&#1088;&#1072;</text><polygon fill="#F1F1F1" points="397,659.959,490,659.959,502,673.7949,490,687.6309,397,687.6309,385,673.7949,397,659.959" style="stroke:#181818;stroke-width:0.5;"/><text fill="#000000" font-family="sans-serif" font-size="11" lengthAdjust="spacing" textLength="14" x="447.5" y="699.0498">&#1044;&#1072;</text><text fill="#000000" font-family="sans-serif" font-size="11" lengthAdjust="spacing" textLength="88" x="397" y="671.3779">&#1055;&#1088;&#1080; &#1087;&#1088;&#1086;&#1074;&#1077;&#1088;&#1082;&#1077; &#1069;&#1055;</text><text fill="#000000" font-family="sans-serif" font-size="11" lengthAdjust="spacing" textLength="93" x="397" y="685.2139">&#1074;&#1086;&#1079;&#1085;&#1080;&#1082;&#1083;&#1072; &#1086;&#1096;&#1080;&#1073;&#1082;&#1072;?</text><rect fill="#F1F1F1" height="35.0938" rx="12.5" ry="12.5" style="stroke:#181818;stroke-width:0.5;" width="125" x="381" y="959.0723"/><text fill="#000000" font-family="sans-serif" font-size="12" lengthAdjust="spacing" textLength="105" x="391" y="981.5293">&#1042;&#1099;&#1087;&#1091;&#1089;&#1090;&#1080;&#1090;&#1100; &#1057;&#1050;&#1055;&#1069;&#1055;</text><rect fill="#F1F1F1" height="35.0938" rx="12.5" ry="12.5" style="stroke:#181818;stroke-width:0.5;" width="112" x="387.5" y="1014.166"/><text fill="#000000" font-family="sans-serif" font-size="12" lengthAdjust="spacing" textLength="92" x="397.5" y="1036.623">&#1042;&#1077;&#1088;&#1085;&#1091;&#1090;&#1100; &#1057;&#1050;&#1055;&#1069;&#1055;</text><line style="stroke:#000000;stroke-width:1.5;" x1="332" x2="332" y1="12.4551" y2="1146.3535"/><line style="stroke:#000000;stroke-width:1.5;" x1="576.5" x2="576.5" y1="12.4551" y2="1146.3535"/><line style="stroke:#181818;stroke-width:1.0;" x1="224" x2="224" y1="60.0957" y2="80.0957"/><polygon fill="#181818" points="220,70.0957,224,80.0957,228,70.0957,224,74.0957" style="stroke:#181818;stroke-width:1.0;"/><line style="stroke:#181818;stroke-width:1.0;" x1="224" x2="224" y1="478.7168" y2="507.2441"/><polygon fill="#181818" points="220,497.2441,224,507.2441,228,497.2441,224,501.2441" style="stroke:#181818;stroke-width:1.0;"/><line style="stroke:#181818;stroke-width:1.0;" x1="224" x2="224" y1="848.0176" y2="876.5449"/><polygon fill="#181818" points="220,866.5449,224,876.5449,228,866.5449,224,870.5449" style="stroke:#181818;stroke-width:1.0;"/><line style="stroke:#181818;stroke-width:1.0;" x1="224" x2="224" y1="1104.3535" y2="1124.3535"/><polygon fill="#181818" points="220,1114.3535,224,1124.3535,228,1114.3535,224,1118.3535" style="stroke:#181818;stroke-width:1.0;"/><line style="stroke:#181818;stroke-width:1.0;" x1="443.5" x2="443.5" y1="230.6582" y2="250.6582"/><polygon fill="#181818" points="439.5,240.6582,443.5,250.6582,447.5,240.6582,443.5,244.6582" style="stroke:#181818;stroke-width:1.0;"/><line style="stroke:#FF0000;stroke-width:1.0;" x1="443.5" x2="443.5" y1="348.5176" y2="373.4355"/><polygon fill="#FF0000" points="439.5,363.4355,443.5,373.4355,447.5,363.4355,443.5,367.4355" style="stroke:#FF0000;stroke-width:1.0;"/><line style="stroke:#181818;stroke-width:1.0;" x1="502" x2="547.5" y1="334.6816" y2="334.6816"/><polygon fill="#181818" points="543.5,451.6855,547.5,461.6855,551.5,451.6855,547.5,455.6855" style="stroke:#181818;stroke-width:1.0;"/><line style="stroke:#181818;stroke-width:1.0;" x1="547.5" x2="547.5" y1="334.6816" y2="569.7715"/><line style="stroke:#181818;stroke-width:1.0;" x1="547.5" x2="443.5" y1="569.7715" y2="569.7715"/><line style="stroke:#181818;stroke-width:1.0;" x1="443.5" x2="443.5" y1="569.7715" y2="589.7715"/><polygon fill="#181818" points="439.5,579.7715,443.5,589.7715,447.5,579.7715,443.5,583.7715" style="stroke:#181818;stroke-width:1.0;"/><line style="stroke:#181818;stroke-width:1.0;" x1="443.5" x2="443.5" y1="300.8457" y2="320.8457"/><polygon fill="#181818" points="439.5,310.8457,443.5,320.8457,447.5,310.8457,443.5,314.8457" style="stroke:#181818;stroke-width:1.0;"/><line style="stroke:#FF0000;stroke-width:1.0;" x1="443.5" x2="443.5" y1="687.6309" y2="712.5488"/><polygon fill="#FF0000" points="439.5,702.5488,443.5,712.5488,447.5,702.5488,443.5,706.5488" style="stroke:#FF0000;stroke-width:1.0;"/><line style="stroke:#181818;stroke-width:1.0;" x1="502" x2="557.5" y1="673.7949" y2="673.7949"/><polygon fill="#181818" points="553.5,805.8926,557.5,815.8926,561.5,805.8926,557.5,809.8926" style="stroke:#181818;stroke-width:1.0;"/><line style="stroke:#181818;stroke-width:1.0;" x1="557.5" x2="557.5" y1="673.7949" y2="939.0723"/><line style="stroke:#181818;stroke-width:1.0;" x1="557.5" x2="443.5" y1="939.0723" y2="939.0723"/><line style="stroke:#181818;stroke-width:1.0;" x1="443.5" x2="443.5" y1="939.0723" y2="959.0723"/><polygon fill="#181818" points="439.5,949.0723,443.5,959.0723,447.5,949.0723,443.5,953.0723" style="stroke:#181818;stroke-width:1.0;"/><line style="stroke:#181818;stroke-width:1.0;" x1="443.5" x2="443.5" y1="639.959" y2="659.959"/><polygon fill="#181818" points="439.5,649.959,443.5,659.959,447.5,649.959,443.5,653.959" style="stroke:#181818;stroke-width:1.0;"/><line style="stroke:#181818;stroke-width:1.0;" x1="443.5" x2="443.5" y1="994.166" y2="1014.166"/><polygon fill="#181818" points="439.5,1004.166,443.5,1014.166,447.5,1004.166,443.5,1008.166" style="stroke:#181818;stroke-width:1.0;"/><line style="stroke:#181818;stroke-width:1.0;" x1="224" x2="224" y1="145.377" y2="150.377"/><line style="stroke:#181818;stroke-width:1.0;" x1="224" x2="443.5" y1="150.377" y2="150.377"/><line style="stroke:#181818;stroke-width:1.0;" x1="443.5" x2="443.5" y1="150.377" y2="165.377"/><polygon fill="#181818" points="439.5,155.377,443.5,165.377,447.5,155.377,443.5,159.377" style="stroke:#181818;stroke-width:1.0;"/><line style="stroke:#181818;stroke-width:1.0;" x1="443.5" x2="443.5" y1="408.5293" y2="413.5293"/><line style="stroke:#181818;stroke-width:1.0;" x1="443.5" x2="224" y1="413.5293" y2="413.5293"/><line style="stroke:#181818;stroke-width:1.0;" x1="224" x2="224" y1="413.5293" y2="428.5293"/><polygon fill="#181818" points="220,418.5293,224,428.5293,228,418.5293,224,422.5293" style="stroke:#181818;stroke-width:1.0;"/><line style="stroke:#181818;stroke-width:1.0;" x1="443.5" x2="443.5" y1="762.7363" y2="767.7363"/><line style="stroke:#181818;stroke-width:1.0;" x1="443.5" x2="224" y1="767.7363" y2="767.7363"/><line style="stroke:#181818;stroke-width:1.0;" x1="224" x2="224" y1="767.7363" y2="782.7363"/><polygon fill="#181818" points="220,772.7363,224,782.7363,228,772.7363,224,776.7363" style="stroke:#181818;stroke-width:1.0;"/><line style="stroke:#181818;stroke-width:1.0;" x1="443.5" x2="443.5" y1="1049.2598" y2="1054.2598"/><line style="stroke:#181818;stroke-width:1.0;" x1="443.5" x2="224" y1="1054.2598" y2="1054.2598"/><line style="stroke:#181818;stroke-width:1.0;" x1="224" x2="224" y1="1054.2598" y2="1069.2598"/><polygon fill="#181818" points="220,1059.2598,224,1069.2598,228,1059.2598,224,1063.2598" style="stroke:#181818;stroke-width:1.0;"/><text fill="#000000" font-family="sans-serif" font-size="18" lengthAdjust="spacing" textLength="144" x="101.5" y="31.1406">&#1042;&#1099;&#1079;&#1099;&#1074;&#1072;&#1102;&#1097;&#1072;&#1103; &#1040;&#1057;</text><text fill="#000000" font-family="sans-serif" font-size="18" lengthAdjust="spacing" textLength="24" x="442.25" y="31.1406">&#1059;&#1062;</text><!--SRC=[pPNDIiD058NtynG3RdJH5r3G1r4NGbCiI2erooniA_wWQ0ckN1YAu4w8eR6XjUahd7aZxymavhUc8XG7fkdStdlkDpEdhGr7t692quSdxiKDlJvm336ocOqNlDgCdijpE8qpwwXhgNVRU1PzBCGvFCeDHL_SSId2CQ68Z4UYnp67nrK-V19TY87eOSenmXDSlC7b23aMY30cDHy1rNrWZ80AGmIwSaY1JrfIIFIe4RMav4W-TrY2hfbSKffHawk4QBqmCOJi5zV764hSp-4WK40_yMZ1TejlAaq9bv6UIWNAEZ0f496qf9nYHfia_MjQlDFIszlYrh5XAYav6liRNQDvsDZ5OuAiiHsbEYSAXVmj8GR5lY5FwUIeSqtQetG_sIwvt9gMseoTqtp4x5W6Fp5QLYwgvDBEWV91zeZAsLNDonTOhbFArPUPIpRCfe9byQBTAXZPYTrpGVEIfiRnzA7zrQB_mL5-ka6fAJU9aAKNKBr5RQkQxQtFaaifytKh4Q_RqQknr_7_qjN9DuFAuzCk_DYLJ9FvlFRVgU8o2_BoW1dx0W00]--></g></svg>