<?xml version="1.0" encoding="us-ascii" standalone="no"?><svg xmlns="http://www.w3.org/2000/svg" xmlns:xlink="http://www.w3.org/1999/xlink" contentStyleType="text/css" height="2047px" preserveAspectRatio="none" style="width:701px;height:2047px;background:#FFFFFF;" version="1.1" viewBox="0 0 701 2047" width="701px" zoomAndPan="magnify"><defs/><g><rect fill="none" height="22.6406" style="stroke:none;stroke-width:1.0;" width="668.5" x="15" y="12.4551"/><path d="M20,40.0957 L20,148.2051 A0,0 0 0 0 20,148.2051 L208,148.2051 A0,0 0 0 0 208,148.2051 L208,98.1504 L228,94.1504 L208,90.1504 L208,50.0957 L198,40.0957 L20,40.0957 A0,0 0 0 0 20,40.0957 " fill="#FEFFDD" style="stroke:#181818;stroke-width:0.5;"/><path d="M198,40.0957 L198,50.0957 L208,50.0957 L198,40.0957 " fill="#FEFFDD" style="stroke:#181818;stroke-width:0.5;"/><text fill="#000000" font-family="sans-serif" font-size="13" lengthAdjust="spacing" textLength="167" x="26" y="58.5908">&#1047;&#1072;&#1087;&#1088;&#1086;&#1089; &#1085;&#1072; &#1087;&#1086;&#1083;&#1091;&#1095;&#1077;&#1085;&#1080;&#1077; &#1092;&#1083;&#1072;&#1075;&#1072;</text><text fill="#000000" font-family="sans-serif" font-size="13" lengthAdjust="spacing" textLength="158" x="26" y="74.9424">&#1087;&#1088;&#1077;&#1076;&#1089;&#1090;&#1072;&#1074;&#1083;&#1103;&#1077;&#1090; &#1089;&#1086;&#1073;&#1086;&#1081; JSON</text><text fill="#000000" font-family="sans-serif" font-size="13" lengthAdjust="spacing" textLength="136" x="26" y="91.2939">&#1089;&#1083;&#1077;&#1076;&#1091;&#1102;&#1097;&#1077;&#1075;&#1086; &#1092;&#1086;&#1088;&#1084;&#1072;&#1090;&#1072;:</text><text fill="#000000" font-family="sans-serif" font-size="13" lengthAdjust="spacing" textLength="4" x="26" y="107.6455">{</text><text fill="#000000" font-family="sans-serif" font-size="13" lengthAdjust="spacing" textLength="94" x="42" y="123.9971">"resource":"flag"</text><text fill="#000000" font-family="sans-serif" font-size="13" lengthAdjust="spacing" textLength="4" x="26" y="140.3486">}</text><rect fill="#F1F1F1" height="50.1875" rx="12.5" ry="12.5" style="stroke:#181818;stroke-width:0.5;" width="167" x="228" y="69.0566"/><text fill="#000000" font-family="sans-serif" font-size="12" lengthAdjust="spacing" textLength="147" x="238" y="91.5137">&#1057;&#1092;&#1086;&#1088;&#1084;&#1080;&#1088;&#1086;&#1074;&#1072;&#1090;&#1100; &#1079;&#1072;&#1087;&#1088;&#1086;&#1089; &#1085;&#1072;</text><text fill="#000000" font-family="sans-serif" font-size="12" lengthAdjust="spacing" textLength="97" x="238" y="106.6074">&#1087;&#1086;&#1083;&#1091;&#1095;&#1077;&#1085;&#1080;&#1077; &#1092;&#1083;&#1072;&#1075;&#1072;</text><rect fill="#F1F1F1" height="50.1875" rx="12.5" ry="12.5" style="stroke:#181818;stroke-width:0.5;" width="142" x="240.5" y="168.2051"/><text fill="#000000" font-family="sans-serif" font-size="12" lengthAdjust="spacing" textLength="122" x="250.5" y="190.6621">&#1055;&#1086;&#1076;&#1087;&#1080;&#1089;&#1072;&#1090;&#1100; &#1079;&#1072;&#1087;&#1088;&#1086;&#1089; &#1085;&#1072;</text><text fill="#000000" font-family="sans-serif" font-size="12" lengthAdjust="spacing" textLength="97" x="250.5" y="205.7559">&#1087;&#1086;&#1083;&#1091;&#1095;&#1077;&#1085;&#1080;&#1077; &#1092;&#1083;&#1072;&#1075;&#1072;</text><rect fill="#F1F1F1" height="50.1875" rx="12.5" ry="12.5" style="stroke:#181818;stroke-width:0.5;" width="140" x="241.5" y="238.3926"/><text fill="#000000" font-family="sans-serif" font-size="12" lengthAdjust="spacing" textLength="120" x="251.5" y="260.8496">&#1054;&#1090;&#1087;&#1088;&#1072;&#1074;&#1080;&#1090;&#1100; &#1079;&#1072;&#1087;&#1088;&#1086;&#1089; &#1085;&#1072;</text><text fill="#000000" font-family="sans-serif" font-size="12" lengthAdjust="spacing" textLength="97" x="251.5" y="275.9434">&#1087;&#1086;&#1083;&#1091;&#1095;&#1077;&#1085;&#1080;&#1077; &#1092;&#1083;&#1072;&#1075;&#1072;</text><rect fill="#F1F1F1" height="50.1875" rx="12.5" ry="12.5" style="stroke:#181818;stroke-width:0.5;" width="166" x="228.5" y="433.8613"/><text fill="#000000" font-family="sans-serif" font-size="12" lengthAdjust="spacing" textLength="144" x="238.5" y="456.3184">&#1054;&#1090;&#1087;&#1088;&#1072;&#1074;&#1080;&#1090;&#1100; &#1069;&#1055; &#1074; &#1092;&#1086;&#1088;&#1084;&#1072;&#1090;&#1077;</text><text fill="#000000" font-family="sans-serif" font-size="12" lengthAdjust="spacing" textLength="146" x="238.5" y="471.4121">base64 &#1055;&#1088;&#1086;&#1074;&#1077;&#1088;&#1103;&#1102;&#1097;&#1077;&#1081; &#1040;&#1057;</text><rect fill="#F1F1F1" height="95.4688" rx="12.5" ry="12.5" style="stroke:#181818;stroke-width:0.5;" width="203" x="210" y="674.6113"/><text fill="#000000" font-family="sans-serif" font-size="12" lengthAdjust="spacing" textLength="165" x="220" y="697.0684">&#1055;&#1088;&#1077;&#1076;&#1086;&#1089;&#1090;&#1072;&#1074;&#1080;&#1090;&#1100; &#1055;&#1088;&#1086;&#1074;&#1077;&#1088;&#1103;&#1102;&#1097;&#1077;&#1081;</text><text fill="#000000" font-family="sans-serif" font-size="12" lengthAdjust="spacing" textLength="139" x="220" y="712.1621">&#1040;&#1057; &#1057;&#1050;&#1055;&#1069;&#1055;, &#1089;&#1074;&#1103;&#1079;&#1072;&#1085;&#1085;&#1099;&#1081; &#1089;</text><text fill="#000000" font-family="sans-serif" font-size="12" lengthAdjust="spacing" textLength="140" x="220" y="727.2559">&#1082;&#1086;&#1090;&#1086;&#1088;&#1099;&#1084; &#1079;&#1072;&#1082;&#1088;&#1099;&#1090;&#1099;&#1081; &#1082;&#1083;&#1102;&#1095;</text><text fill="#000000" font-family="sans-serif" font-size="12" lengthAdjust="spacing" textLength="183" x="220" y="742.3496">&#1080;&#1089;&#1087;&#1086;&#1083;&#1100;&#1079;&#1086;&#1074;&#1072;&#1083;&#1089;&#1103; &#1076;&#1083;&#1103; &#1074;&#1099;&#1095;&#1080;&#1089;&#1083;&#1077;&#1085;&#1080;&#1103;</text><text fill="#000000" font-family="sans-serif" font-size="12" lengthAdjust="spacing" textLength="18" x="220" y="757.4434">&#1069;&#1055;</text><rect fill="#F1F1F1" height="65.2813" rx="12.5" ry="12.5" style="stroke:#181818;stroke-width:0.5;" width="154" x="234.5" y="994.4668"/><text fill="#000000" font-family="sans-serif" font-size="12" lengthAdjust="spacing" textLength="97" x="244.5" y="1016.9238">&#1055;&#1086;&#1083;&#1091;&#1095;&#1080;&#1090;&#1100; &#1086;&#1096;&#1080;&#1073;&#1082;&#1091;</text><text fill="#000000" font-family="sans-serif" font-size="12" lengthAdjust="spacing" textLength="134" x="244.5" y="1032.0176">&#1087;&#1086;&#1089;&#1090;&#1088;&#1086;&#1077;&#1085;&#1080;&#1103; &#1094;&#1077;&#1087;&#1086;&#1095;&#1082;&#1080; &#1076;&#1086;</text><text fill="#000000" font-family="sans-serif" font-size="12" lengthAdjust="spacing" textLength="93" x="244.5" y="1047.1113">&#1076;&#1086;&#1074;&#1077;&#1088;&#1077;&#1085;&#1085;&#1086;&#1075;&#1086; &#1059;&#1062;</text><path d="M120.5,1069.748 L120.5,1128.8027 A0,0 0 0 0 120.5,1128.8027 L280.5,1128.8027 A0,0 0 0 0 280.5,1128.8027 L280.5,1103.2754 L300.5,1099.2754 L280.5,1095.2754 L280.5,1079.748 L270.5,1069.748 L120.5,1069.748 A0,0 0 0 0 120.5,1069.748 " fill="#FEFFDD" style="stroke:#181818;stroke-width:0.5;"/><path d="M270.5,1069.748 L270.5,1079.748 L280.5,1079.748 L270.5,1069.748 " fill="#FEFFDD" style="stroke:#181818;stroke-width:0.5;"/><text fill="#000000" font-family="sans-serif" font-size="13" lengthAdjust="spacing" textLength="107" x="126.5" y="1088.2432">&#1055;&#1086;&#1083;&#1091;&#1095;&#1077;&#1085;&#1072; &#1086;&#1096;&#1080;&#1073;&#1082;&#1072;</text><text fill="#000000" font-family="sans-serif" font-size="13" lengthAdjust="spacing" textLength="139" x="126.5" y="1104.5947">&#1087;&#1086;&#1089;&#1090;&#1088;&#1086;&#1077;&#1085;&#1080;&#1103; &#1094;&#1077;&#1087;&#1086;&#1095;&#1082;&#1080; &#1076;&#1086;</text><text fill="#000000" font-family="sans-serif" font-size="13" lengthAdjust="spacing" textLength="98" x="126.5" y="1120.9463">&#1076;&#1086;&#1074;&#1077;&#1088;&#1077;&#1085;&#1085;&#1086;&#1075;&#1086; &#1059;&#1062;</text><ellipse cx="311.5" cy="1099.2754" fill="none" rx="11" ry="11" style="stroke:#222222;stroke-width:1.0;"/><ellipse cx="311.5" cy="1099.2754" fill="#222222" rx="6" ry="6" style="stroke:#222222;stroke-width:1.0;"/><rect fill="#F1F1F1" height="50.1875" rx="12.5" ry="12.5" style="stroke:#181818;stroke-width:0.5;" width="159" x="232" y="1393.9551"/><text fill="#000000" font-family="sans-serif" font-size="12" lengthAdjust="spacing" textLength="97" x="242" y="1416.4121">&#1055;&#1086;&#1083;&#1091;&#1095;&#1080;&#1090;&#1100; &#1086;&#1096;&#1080;&#1073;&#1082;&#1091;</text><text fill="#000000" font-family="sans-serif" font-size="12" lengthAdjust="spacing" textLength="139" x="242" y="1431.5059">&#1087;&#1088;&#1086;&#1074;&#1077;&#1088;&#1082;&#1080; &#1087;&#1088;&#1072;&#1074; &#1074; &#1057;&#1050;&#1055;&#1069;&#1055;</text><path d="M113.5,1454.1426 L113.5,1496.8457 A0,0 0 0 0 113.5,1496.8457 L280.5,1496.8457 A0,0 0 0 0 280.5,1496.8457 L280.5,1479.4941 L300.5,1475.4941 L280.5,1471.4941 L280.5,1464.1426 L270.5,1454.1426 L113.5,1454.1426 A0,0 0 0 0 113.5,1454.1426 " fill="#FEFFDD" style="stroke:#181818;stroke-width:0.5;"/><path d="M270.5,1454.1426 L270.5,1464.1426 L280.5,1464.1426 L270.5,1454.1426 " fill="#FEFFDD" style="stroke:#181818;stroke-width:0.5;"/><text fill="#000000" font-family="sans-serif" font-size="13" lengthAdjust="spacing" textLength="107" x="119.5" y="1472.6377">&#1055;&#1086;&#1083;&#1091;&#1095;&#1077;&#1085;&#1072; &#1086;&#1096;&#1080;&#1073;&#1082;&#1072;</text><text fill="#000000" font-family="sans-serif" font-size="13" lengthAdjust="spacing" textLength="146" x="119.5" y="1488.9893">&#1087;&#1088;&#1086;&#1074;&#1077;&#1088;&#1082;&#1080; &#1087;&#1088;&#1072;&#1074; &#1074; &#1057;&#1050;&#1055;&#1069;&#1055;</text><ellipse cx="311.5" cy="1475.4941" fill="none" rx="11" ry="11" style="stroke:#222222;stroke-width:1.0;"/><ellipse cx="311.5" cy="1475.4941" fill="#222222" rx="6" ry="6" style="stroke:#222222;stroke-width:1.0;"/><rect fill="#F1F1F1" height="65.2813" rx="12.5" ry="12.5" style="stroke:#181818;stroke-width:0.5;" width="117" x="253" y="1743.2324"/><text fill="#000000" font-family="sans-serif" font-size="12" lengthAdjust="spacing" textLength="97" x="263" y="1765.6895">&#1055;&#1086;&#1083;&#1091;&#1095;&#1080;&#1090;&#1100; &#1086;&#1096;&#1080;&#1073;&#1082;&#1091;</text><text fill="#000000" font-family="sans-serif" font-size="12" lengthAdjust="spacing" textLength="75" x="263" y="1780.7832">&#1087;&#1088;&#1086;&#1074;&#1077;&#1088;&#1082;&#1080; &#1069;&#1055;</text><text fill="#000000" font-family="sans-serif" font-size="12" lengthAdjust="spacing" textLength="93" x="263" y="1795.877">&#1076;&#1086;&#1074;&#1077;&#1088;&#1077;&#1085;&#1085;&#1086;&#1075;&#1086; &#1059;&#1062;</text><path d="M148.5,1818.5137 L148.5,1861.2168 A0,0 0 0 0 148.5,1861.2168 L280.5,1861.2168 A0,0 0 0 0 280.5,1861.2168 L280.5,1843.8652 L300.5,1839.8652 L280.5,1835.8652 L280.5,1828.5137 L270.5,1818.5137 L148.5,1818.5137 A0,0 0 0 0 148.5,1818.5137 " fill="#FEFFDD" style="stroke:#181818;stroke-width:0.5;"/><path d="M270.5,1818.5137 L270.5,1828.5137 L280.5,1828.5137 L270.5,1818.5137 " fill="#FEFFDD" style="stroke:#181818;stroke-width:0.5;"/><text fill="#000000" font-family="sans-serif" font-size="13" lengthAdjust="spacing" textLength="107" x="154.5" y="1837.0088">&#1055;&#1086;&#1083;&#1091;&#1095;&#1077;&#1085;&#1072; &#1086;&#1096;&#1080;&#1073;&#1082;&#1072;</text><text fill="#000000" font-family="sans-serif" font-size="13" lengthAdjust="spacing" textLength="77" x="154.5" y="1853.3604">&#1087;&#1088;&#1086;&#1074;&#1077;&#1088;&#1082;&#1080; &#1069;&#1055;</text><ellipse cx="311.5" cy="1839.8652" fill="none" rx="11" ry="11" style="stroke:#222222;stroke-width:1.0;"/><ellipse cx="311.5" cy="1839.8652" fill="#222222" rx="6" ry="6" style="stroke:#222222;stroke-width:1.0;"/><rect fill="#F1F1F1" height="35.0938" rx="12.5" ry="12.5" style="stroke:#181818;stroke-width:0.5;" width="103" x="260" y="1958.3105"/><text fill="#000000" font-family="sans-serif" font-size="12" lengthAdjust="spacing" textLength="83" x="270" y="1980.7676">&#1055;&#1086;&#1083;&#1091;&#1095;&#1080;&#1090;&#1100; &#1092;&#1083;&#1072;&#1075;</text><ellipse cx="311.5" cy="2024.4043" fill="none" rx="11" ry="11" style="stroke:#222222;stroke-width:1.0;"/><ellipse cx="311.5" cy="2024.4043" fill="#222222" rx="6" ry="6" style="stroke:#222222;stroke-width:1.0;"/><line style="stroke:#000000;stroke-width:1.5;" x1="15" x2="15" y1="12.4551" y2="2035.4043"/><rect fill="#F1F1F1" height="50.1875" rx="12.5" ry="12.5" style="stroke:#181818;stroke-width:0.5;" width="133" x="475" y="308.5801"/><text fill="#000000" font-family="sans-serif" font-size="12" lengthAdjust="spacing" textLength="113" x="485" y="331.0371">&#1055;&#1086;&#1083;&#1091;&#1095;&#1080;&#1090;&#1100; &#1079;&#1072;&#1087;&#1088;&#1086;&#1089; &#1085;&#1072;</text><text fill="#000000" font-family="sans-serif" font-size="12" lengthAdjust="spacing" textLength="97" x="485" y="346.1309">&#1087;&#1086;&#1083;&#1091;&#1095;&#1077;&#1085;&#1080;&#1077; &#1092;&#1083;&#1072;&#1075;&#1072;</text><rect fill="#F1F1F1" height="35.0938" rx="12.5" ry="12.5" style="stroke:#181818;stroke-width:0.5;" width="101" x="491" y="378.7676"/><text fill="#000000" font-family="sans-serif" font-size="12" lengthAdjust="spacing" textLength="81" x="501" y="401.2246">&#1047;&#1072;&#1087;&#1088;&#1086;&#1089;&#1080;&#1090;&#1100; &#1069;&#1055;</text><rect fill="#F1F1F1" height="35.0938" rx="12.5" ry="12.5" style="stroke:#181818;stroke-width:0.5;" width="94" x="494.5" y="504.0488"/><text fill="#000000" font-family="sans-serif" font-size="12" lengthAdjust="spacing" textLength="74" x="504.5" y="526.5059">&#1055;&#1086;&#1083;&#1091;&#1095;&#1080;&#1090;&#1100; &#1069;&#1055;</text><rect fill="#F1F1F1" height="95.4688" rx="12.5" ry="12.5" style="stroke:#181818;stroke-width:0.5;" width="203" x="440" y="559.1426"/><text fill="#000000" font-family="sans-serif" font-size="12" lengthAdjust="spacing" textLength="148" x="450" y="581.5996">&#1047;&#1072;&#1087;&#1088;&#1086;&#1089;&#1080;&#1090;&#1100; &#1091; &#1042;&#1099;&#1079;&#1099;&#1074;&#1072;&#1102;&#1097;&#1077;&#1081;</text><text fill="#000000" font-family="sans-serif" font-size="12" lengthAdjust="spacing" textLength="139" x="450" y="596.6934">&#1040;&#1057; &#1057;&#1050;&#1055;&#1069;&#1055;, &#1089;&#1074;&#1103;&#1079;&#1072;&#1085;&#1085;&#1099;&#1081; &#1089;</text><text fill="#000000" font-family="sans-serif" font-size="12" lengthAdjust="spacing" textLength="140" x="450" y="611.7871">&#1082;&#1086;&#1090;&#1086;&#1088;&#1099;&#1084; &#1079;&#1072;&#1082;&#1088;&#1099;&#1090;&#1099;&#1081; &#1082;&#1083;&#1102;&#1095;</text><text fill="#000000" font-family="sans-serif" font-size="12" lengthAdjust="spacing" textLength="183" x="450" y="626.8809">&#1080;&#1089;&#1087;&#1086;&#1083;&#1100;&#1079;&#1086;&#1074;&#1072;&#1083;&#1089;&#1103; &#1076;&#1083;&#1103; &#1074;&#1099;&#1095;&#1080;&#1089;&#1083;&#1077;&#1085;&#1080;&#1103;</text><text fill="#000000" font-family="sans-serif" font-size="12" lengthAdjust="spacing" textLength="18" x="450" y="641.9746">&#1069;&#1055;</text><rect fill="#F1F1F1" height="50.1875" rx="12.5" ry="12.5" style="stroke:#181818;stroke-width:0.5;" width="166" x="458.5" y="790.0801"/><text fill="#000000" font-family="sans-serif" font-size="12" lengthAdjust="spacing" textLength="132" x="468.5" y="812.5371">&#1055;&#1088;&#1086;&#1074;&#1077;&#1088;&#1080;&#1090;&#1100;, &#1095;&#1090;&#1086; &#1057;&#1050;&#1055;&#1069;&#1055;</text><text fill="#000000" font-family="sans-serif" font-size="12" lengthAdjust="spacing" textLength="146" x="468.5" y="827.6309">&#1074;&#1099;&#1087;&#1091;&#1097;&#1077;&#1085; &#1076;&#1086;&#1074;&#1077;&#1088;&#1077;&#1085;&#1085;&#1099;&#1084; &#1059;&#1062;</text><rect fill="#F1F1F1" height="65.2813" rx="12.5" ry="12.5" style="stroke:#181818;stroke-width:0.5;" width="154" x="464.5" y="909.1855"/><text fill="#000000" font-family="sans-serif" font-size="12" lengthAdjust="spacing" textLength="90" x="474.5" y="931.6426">&#1042;&#1077;&#1088;&#1085;&#1091;&#1090;&#1100; &#1086;&#1096;&#1080;&#1073;&#1082;&#1091;</text><text fill="#000000" font-family="sans-serif" font-size="12" lengthAdjust="spacing" textLength="134" x="474.5" y="946.7363">&#1087;&#1086;&#1089;&#1090;&#1088;&#1086;&#1077;&#1085;&#1080;&#1103; &#1094;&#1077;&#1087;&#1086;&#1095;&#1082;&#1080; &#1076;&#1086;</text><text fill="#000000" font-family="sans-serif" font-size="12" lengthAdjust="spacing" textLength="93" x="474.5" y="961.8301">&#1076;&#1086;&#1074;&#1077;&#1088;&#1077;&#1085;&#1085;&#1086;&#1075;&#1086; &#1059;&#1062;</text><polygon fill="#F1F1F1" points="447,860.2676,636,860.2676,648,872.2676,636,884.2676,447,884.2676,435,872.2676,447,860.2676" style="stroke:#181818;stroke-width:0.5;"/><text fill="#000000" font-family="sans-serif" font-size="11" lengthAdjust="spacing" textLength="14" x="545.5" y="895.6865">&#1044;&#1072;</text><text fill="#000000" font-family="sans-serif" font-size="11" lengthAdjust="spacing" textLength="189" x="447" y="876.7686">&#1057;&#1050;&#1055;&#1069;&#1055; &#1074;&#1099;&#1087;&#1091;&#1097;&#1077;&#1085; &#1085;&#1077;&#1076;&#1086;&#1074;&#1077;&#1088;&#1077;&#1085;&#1085;&#1099;&#1084; &#1059;&#1062;?</text><rect fill="#F1F1F1" height="80.375" rx="12.5" ry="12.5" style="stroke:#181818;stroke-width:0.5;" width="204" x="439.5" y="1170.8027"/><text fill="#000000" font-family="sans-serif" font-size="12" lengthAdjust="spacing" textLength="168" x="449.5" y="1193.2598">&#1055;&#1088;&#1086;&#1074;&#1077;&#1088;&#1080;&#1090;&#1100; &#1074; &#1057;&#1050;&#1055;&#1069;&#1055; &#1085;&#1072;&#1083;&#1080;&#1095;&#1080;&#1077;</text><text fill="#000000" font-family="sans-serif" font-size="12" lengthAdjust="spacing" textLength="80" x="449.5" y="1208.3535">&#1088;&#1072;&#1089;&#1096;&#1080;&#1088;&#1077;&#1085;&#1080;&#1103; &#1089;</text><text fill="#000000" font-family="sans-serif" font-size="12" lengthAdjust="spacing" textLength="125" x="449.5" y="1223.4473">OID 1.2.643.1.1.1.1.1 &#1080;</text><text fill="#000000" font-family="sans-serif" font-size="12" lengthAdjust="spacing" textLength="184" x="449.5" y="1238.541">&#1089;&#1090;&#1088;&#1086;&#1082;&#1086;&#1074;&#1099;&#1084; &#1079;&#1085;&#1072;&#1095;&#1077;&#1085;&#1080;&#1077;&#1084; "IsAdmin"</text><rect fill="#F1F1F1" height="50.1875" rx="12.5" ry="12.5" style="stroke:#181818;stroke-width:0.5;" width="167" x="458" y="1323.7676"/><text fill="#000000" font-family="sans-serif" font-size="12" lengthAdjust="spacing" textLength="147" x="468" y="1346.2246">&#1042;&#1077;&#1088;&#1085;&#1091;&#1090;&#1100; &#1086;&#1096;&#1080;&#1073;&#1082;&#1091; &#1087;&#1088;&#1086;&#1074;&#1077;&#1088;&#1082;&#1080;</text><text fill="#000000" font-family="sans-serif" font-size="12" lengthAdjust="spacing" textLength="82" x="468" y="1361.3184">&#1087;&#1088;&#1072;&#1074; &#1074; &#1057;&#1050;&#1055;&#1069;&#1055;</text><polygon fill="#F1F1F1" points="451,1271.1777,632,1271.1777,644,1285.0137,632,1298.8496,451,1298.8496,439,1285.0137,451,1271.1777" style="stroke:#181818;stroke-width:0.5;"/><text fill="#000000" font-family="sans-serif" font-size="11" lengthAdjust="spacing" textLength="14" x="545.5" y="1310.2686">&#1044;&#1072;</text><text fill="#000000" font-family="sans-serif" font-size="11" lengthAdjust="spacing" textLength="181" x="451" y="1282.5967">&#1042; &#1057;&#1050;&#1055;&#1069;&#1055; &#1086;&#1090;&#1089;&#1091;&#1090;&#1089;&#1090;&#1074;&#1091;&#1077;&#1090; &#1088;&#1072;&#1089;&#1096;&#1080;&#1088;&#1077;&#1085;&#1080;&#1077;</text><text fill="#000000" font-family="sans-serif" font-size="11" lengthAdjust="spacing" textLength="116" x="451" y="1296.4326">&#1089; OID 1.2.643.1.1.1.1.1?</text><rect fill="#F1F1F1" height="65.2813" rx="12.5" ry="12.5" style="stroke:#181818;stroke-width:0.5;" width="147" x="468" y="1538.8457"/><text fill="#000000" font-family="sans-serif" font-size="12" lengthAdjust="spacing" textLength="107" x="478" y="1561.3027">&#1055;&#1088;&#1086;&#1074;&#1077;&#1088;&#1080;&#1090;&#1100; &#1069;&#1055; &#1076;&#1083;&#1103;</text><text fill="#000000" font-family="sans-serif" font-size="12" lengthAdjust="spacing" textLength="127" x="478" y="1576.3965">&#1079;&#1072;&#1087;&#1088;&#1086;&#1089;&#1072; &#1085;&#1072; &#1087;&#1086;&#1083;&#1091;&#1095;&#1077;&#1085;&#1080;&#1077;</text><text fill="#000000" font-family="sans-serif" font-size="12" lengthAdjust="spacing" textLength="34" x="478" y="1591.4902">&#1092;&#1083;&#1072;&#1075;&#1072;</text><rect fill="#F1F1F1" height="50.1875" rx="12.5" ry="12.5" style="stroke:#181818;stroke-width:0.5;" width="110" x="486.5" y="1673.0449"/><text fill="#000000" font-family="sans-serif" font-size="12" lengthAdjust="spacing" textLength="90" x="496.5" y="1695.502">&#1042;&#1077;&#1088;&#1085;&#1091;&#1090;&#1100; &#1086;&#1096;&#1080;&#1073;&#1082;&#1091;</text><text fill="#000000" font-family="sans-serif" font-size="12" lengthAdjust="spacing" textLength="75" x="496.5" y="1710.5957">&#1087;&#1088;&#1086;&#1074;&#1077;&#1088;&#1082;&#1080; &#1069;&#1055;</text><polygon fill="#F1F1F1" points="444,1624.127,639,1624.127,651,1636.127,639,1648.127,444,1648.127,432,1636.127,444,1624.127" style="stroke:#181818;stroke-width:0.5;"/><text fill="#000000" font-family="sans-serif" font-size="11" lengthAdjust="spacing" textLength="14" x="545.5" y="1659.5459">&#1044;&#1072;</text><text fill="#000000" font-family="sans-serif" font-size="11" lengthAdjust="spacing" textLength="195" x="444" y="1640.6279">&#1055;&#1088;&#1086;&#1074;&#1077;&#1088;&#1082;&#1072; &#1069;&#1055; &#1079;&#1072;&#1074;&#1077;&#1088;&#1096;&#1080;&#1083;&#1072;&#1089;&#1100; &#1085;&#1077;&#1091;&#1076;&#1072;&#1095;&#1077;&#1081;?</text><rect fill="#F1F1F1" height="35.0938" rx="12.5" ry="12.5" style="stroke:#181818;stroke-width:0.5;" width="96" x="493.5" y="1903.2168"/><text fill="#000000" font-family="sans-serif" font-size="12" lengthAdjust="spacing" textLength="76" x="503.5" y="1925.6738">&#1042;&#1077;&#1088;&#1085;&#1091;&#1090;&#1100; &#1092;&#1083;&#1072;&#1075;</text><line style="stroke:#000000;stroke-width:1.5;" x1="417" x2="417" y1="12.4551" y2="2035.4043"/><line style="stroke:#000000;stroke-width:1.5;" x1="682" x2="682" y1="12.4551" y2="2035.4043"/><line style="stroke:#181818;stroke-width:1.0;" x1="311.5" x2="311.5" y1="119.2441" y2="168.2051"/><polygon fill="#181818" points="307.5,158.2051,311.5,168.2051,315.5,158.2051,311.5,162.2051" style="stroke:#181818;stroke-width:1.0;"/><line style="stroke:#181818;stroke-width:1.0;" x1="311.5" x2="311.5" y1="218.3926" y2="238.3926"/><polygon fill="#181818" points="307.5,228.3926,311.5,238.3926,315.5,228.3926,311.5,232.3926" style="stroke:#181818;stroke-width:1.0;"/><line style="stroke:#181818;stroke-width:1.0;" x1="311.5" x2="311.5" y1="1059.748" y2="1088.2754"/><polygon fill="#181818" points="307.5,1078.2754,311.5,1088.2754,315.5,1078.2754,311.5,1082.2754" style="stroke:#181818;stroke-width:1.0;"/><line style="stroke:#181818;stroke-width:1.0;" x1="311.5" x2="311.5" y1="1444.1426" y2="1464.4941"/><polygon fill="#181818" points="307.5,1454.4941,311.5,1464.4941,315.5,1454.4941,311.5,1458.4941" style="stroke:#181818;stroke-width:1.0;"/><line style="stroke:#181818;stroke-width:1.0;" x1="311.5" x2="311.5" y1="1808.5137" y2="1828.8652"/><polygon fill="#181818" points="307.5,1818.8652,311.5,1828.8652,315.5,1818.8652,311.5,1822.8652" style="stroke:#181818;stroke-width:1.0;"/><line style="stroke:#181818;stroke-width:1.0;" x1="311.5" x2="311.5" y1="1993.4043" y2="2013.4043"/><polygon fill="#181818" points="307.5,2003.4043,311.5,2013.4043,315.5,2003.4043,311.5,2007.4043" style="stroke:#181818;stroke-width:1.0;"/><line style="stroke:#181818;stroke-width:1.0;" x1="541.5" x2="541.5" y1="358.7676" y2="378.7676"/><polygon fill="#181818" points="537.5,368.7676,541.5,378.7676,545.5,368.7676,541.5,372.7676" style="stroke:#181818;stroke-width:1.0;"/><line style="stroke:#181818;stroke-width:1.0;" x1="541.5" x2="541.5" y1="539.1426" y2="559.1426"/><polygon fill="#181818" points="537.5,549.1426,541.5,559.1426,545.5,549.1426,541.5,553.1426" style="stroke:#181818;stroke-width:1.0;"/><line style="stroke:#FF0000;stroke-width:1.0;" x1="541.5" x2="541.5" y1="884.2676" y2="909.1855"/><polygon fill="#FF0000" points="537.5,899.1855,541.5,909.1855,545.5,899.1855,541.5,903.1855" style="stroke:#FF0000;stroke-width:1.0;"/><line style="stroke:#181818;stroke-width:1.0;" x1="648" x2="660" y1="872.2676" y2="872.2676"/><polygon fill="#181818" points="656,1010.9941,660,1020.9941,664,1010.9941,660,1014.9941" style="stroke:#181818;stroke-width:1.0;"/><line style="stroke:#181818;stroke-width:1.0;" x1="660" x2="660" y1="872.2676" y2="1150.8027"/><line style="stroke:#181818;stroke-width:1.0;" x1="660" x2="541.5" y1="1150.8027" y2="1150.8027"/><line style="stroke:#181818;stroke-width:1.0;" x1="541.5" x2="541.5" y1="1150.8027" y2="1170.8027"/><polygon fill="#181818" points="537.5,1160.8027,541.5,1170.8027,545.5,1160.8027,541.5,1164.8027" style="stroke:#181818;stroke-width:1.0;"/><line style="stroke:#181818;stroke-width:1.0;" x1="541.5" x2="541.5" y1="840.2676" y2="860.2676"/><polygon fill="#181818" points="537.5,850.2676,541.5,860.2676,545.5,850.2676,541.5,854.2676" style="stroke:#181818;stroke-width:1.0;"/><line style="stroke:#FF0000;stroke-width:1.0;" x1="541.5" x2="541.5" y1="1298.8496" y2="1323.7676"/><polygon fill="#FF0000" points="537.5,1313.7676,541.5,1323.7676,545.5,1313.7676,541.5,1317.7676" style="stroke:#FF0000;stroke-width:1.0;"/><line style="stroke:#181818;stroke-width:1.0;" x1="644" x2="656" y1="1285.0137" y2="1285.0137"/><polygon fill="#181818" points="652,1401.3887,656,1411.3887,660,1401.3887,656,1405.3887" style="stroke:#181818;stroke-width:1.0;"/><line style="stroke:#181818;stroke-width:1.0;" x1="656" x2="656" y1="1285.0137" y2="1518.8457"/><line style="stroke:#181818;stroke-width:1.0;" x1="656" x2="541.5" y1="1518.8457" y2="1518.8457"/><line style="stroke:#181818;stroke-width:1.0;" x1="541.5" x2="541.5" y1="1518.8457" y2="1538.8457"/><polygon fill="#181818" points="537.5,1528.8457,541.5,1538.8457,545.5,1528.8457,541.5,1532.8457" style="stroke:#181818;stroke-width:1.0;"/><line style="stroke:#181818;stroke-width:1.0;" x1="541.5" x2="541.5" y1="1251.1777" y2="1271.1777"/><polygon fill="#181818" points="537.5,1261.1777,541.5,1271.1777,545.5,1261.1777,541.5,1265.1777" style="stroke:#181818;stroke-width:1.0;"/><line style="stroke:#FF0000;stroke-width:1.0;" x1="541.5" x2="541.5" y1="1648.127" y2="1673.0449"/><polygon fill="#FF0000" points="537.5,1663.0449,541.5,1673.0449,545.5,1663.0449,541.5,1667.0449" style="stroke:#FF0000;stroke-width:1.0;"/><line style="stroke:#181818;stroke-width:1.0;" x1="651" x2="663" y1="1636.127" y2="1636.127"/><polygon fill="#181818" points="659,1759.1309,663,1769.1309,667,1759.1309,663,1763.1309" style="stroke:#181818;stroke-width:1.0;"/><line style="stroke:#181818;stroke-width:1.0;" x1="663" x2="663" y1="1636.127" y2="1883.2168"/><line style="stroke:#181818;stroke-width:1.0;" x1="663" x2="541.5" y1="1883.2168" y2="1883.2168"/><line style="stroke:#181818;stroke-width:1.0;" x1="541.5" x2="541.5" y1="1883.2168" y2="1903.2168"/><polygon fill="#181818" points="537.5,1893.2168,541.5,1903.2168,545.5,1893.2168,541.5,1897.2168" style="stroke:#181818;stroke-width:1.0;"/><line style="stroke:#181818;stroke-width:1.0;" x1="541.5" x2="541.5" y1="1604.127" y2="1624.127"/><polygon fill="#181818" points="537.5,1614.127,541.5,1624.127,545.5,1614.127,541.5,1618.127" style="stroke:#181818;stroke-width:1.0;"/><line style="stroke:#181818;stroke-width:1.0;" x1="311.5" x2="311.5" y1="288.5801" y2="293.5801"/><line style="stroke:#181818;stroke-width:1.0;" x1="311.5" x2="541.5" y1="293.5801" y2="293.5801"/><line style="stroke:#181818;stroke-width:1.0;" x1="541.5" x2="541.5" y1="293.5801" y2="308.5801"/><polygon fill="#181818" points="537.5,298.5801,541.5,308.5801,545.5,298.5801,541.5,302.5801" style="stroke:#181818;stroke-width:1.0;"/><line style="stroke:#181818;stroke-width:1.0;" x1="541.5" x2="541.5" y1="413.8613" y2="418.8613"/><line style="stroke:#181818;stroke-width:1.0;" x1="541.5" x2="311.5" y1="418.8613" y2="418.8613"/><line style="stroke:#181818;stroke-width:1.0;" x1="311.5" x2="311.5" y1="418.8613" y2="433.8613"/><polygon fill="#181818" points="307.5,423.8613,311.5,433.8613,315.5,423.8613,311.5,427.8613" style="stroke:#181818;stroke-width:1.0;"/><line style="stroke:#181818;stroke-width:1.0;" x1="311.5" x2="311.5" y1="484.0488" y2="489.0488"/><line style="stroke:#181818;stroke-width:1.0;" x1="311.5" x2="541.5" y1="489.0488" y2="489.0488"/><line style="stroke:#181818;stroke-width:1.0;" x1="541.5" x2="541.5" y1="489.0488" y2="504.0488"/><polygon fill="#181818" points="537.5,494.0488,541.5,504.0488,545.5,494.0488,541.5,498.0488" style="stroke:#181818;stroke-width:1.0;"/><line style="stroke:#181818;stroke-width:1.0;" x1="541.5" x2="541.5" y1="654.6113" y2="659.6113"/><line style="stroke:#181818;stroke-width:1.0;" x1="541.5" x2="311.5" y1="659.6113" y2="659.6113"/><line style="stroke:#181818;stroke-width:1.0;" x1="311.5" x2="311.5" y1="659.6113" y2="674.6113"/><polygon fill="#181818" points="307.5,664.6113,311.5,674.6113,315.5,664.6113,311.5,668.6113" style="stroke:#181818;stroke-width:1.0;"/><line style="stroke:#181818;stroke-width:1.0;" x1="311.5" x2="311.5" y1="770.0801" y2="775.0801"/><line style="stroke:#181818;stroke-width:1.0;" x1="311.5" x2="541.5" y1="775.0801" y2="775.0801"/><line style="stroke:#181818;stroke-width:1.0;" x1="541.5" x2="541.5" y1="775.0801" y2="790.0801"/><polygon fill="#181818" points="537.5,780.0801,541.5,790.0801,545.5,780.0801,541.5,784.0801" style="stroke:#181818;stroke-width:1.0;"/><line style="stroke:#181818;stroke-width:1.0;" x1="541.5" x2="541.5" y1="974.4668" y2="979.4668"/><line style="stroke:#181818;stroke-width:1.0;" x1="541.5" x2="311.5" y1="979.4668" y2="979.4668"/><line style="stroke:#181818;stroke-width:1.0;" x1="311.5" x2="311.5" y1="979.4668" y2="994.4668"/><polygon fill="#181818" points="307.5,984.4668,311.5,994.4668,315.5,984.4668,311.5,988.4668" style="stroke:#181818;stroke-width:1.0;"/><line style="stroke:#181818;stroke-width:1.0;" x1="541.5" x2="541.5" y1="1373.9551" y2="1378.9551"/><line style="stroke:#181818;stroke-width:1.0;" x1="541.5" x2="311.5" y1="1378.9551" y2="1378.9551"/><line style="stroke:#181818;stroke-width:1.0;" x1="311.5" x2="311.5" y1="1378.9551" y2="1393.9551"/><polygon fill="#181818" points="307.5,1383.9551,311.5,1393.9551,315.5,1383.9551,311.5,1387.9551" style="stroke:#181818;stroke-width:1.0;"/><line style="stroke:#181818;stroke-width:1.0;" x1="541.5" x2="541.5" y1="1723.2324" y2="1728.2324"/><line style="stroke:#181818;stroke-width:1.0;" x1="541.5" x2="311.5" y1="1728.2324" y2="1728.2324"/><line style="stroke:#181818;stroke-width:1.0;" x1="311.5" x2="311.5" y1="1728.2324" y2="1743.2324"/><polygon fill="#181818" points="307.5,1733.2324,311.5,1743.2324,315.5,1733.2324,311.5,1737.2324" style="stroke:#181818;stroke-width:1.0;"/><line style="stroke:#181818;stroke-width:1.0;" x1="541.5" x2="541.5" y1="1938.3105" y2="1943.3105"/><line style="stroke:#181818;stroke-width:1.0;" x1="541.5" x2="311.5" y1="1943.3105" y2="1943.3105"/><line style="stroke:#181818;stroke-width:1.0;" x1="311.5" x2="311.5" y1="1943.3105" y2="1958.3105"/><polygon fill="#181818" points="307.5,1948.3105,311.5,1958.3105,315.5,1948.3105,311.5,1952.3105" style="stroke:#181818;stroke-width:1.0;"/><text fill="#000000" font-family="sans-serif" font-size="18" lengthAdjust="spacing" textLength="144" x="144" y="31.1406">&#1042;&#1099;&#1079;&#1099;&#1074;&#1072;&#1102;&#1097;&#1072;&#1103; &#1040;&#1057;</text><text fill="#000000" font-family="sans-serif" font-size="18" lengthAdjust="spacing" textLength="151" x="474" y="31.1406">&#1055;&#1088;&#1086;&#1074;&#1077;&#1088;&#1103;&#1102;&#1097;&#1072;&#1103; &#1040;&#1057;</text><!--SRC=[pLPDQnDH5DttLppYHi4MggMB51J1JLtOXKjnKSr42pML9gwCq6J4L0n6Ia5mOIY2Es4QCpHDEkbVkEyVUUvzyvs96T8MEwLXPjwxzvrpthdtJPqEz6SwmN-F7Fr5Vy9lHz5NEgelrAchzsYC4LVlwKvg5CFJGnMk8Xtf3pH6YZCQ-8aStTHjHIVaq3c_qWr57ZaodyunPQHjtI8NBmVaAiIFCFKFEMiofR9JizIsLQx9amHzIwNwTveeZcDSwkk6RcAeXuWEQ3QLRY3y6F-dwj6JZSSgZC30I29iuUeYtLY511rEKmmdlmll-2hiMjMTjxilh4AnKDxUV5a8Hz_BdLKf2JLVjYvMxuF604jE4KpbLQn8Fu2CGvdau0BPPjWXWcvI32uCFBQpGRRVr5tBOxmCpWXLr4jkc6lGFD-iMgihAeEU2nTmtddP2zvfRBIj9eXWGICGiYewek_8YIItsNqzE9JbzCX3n2bU-M8EaRJ9jF3wp4W-v0UimlCmFaBobfdCfZBgjp5JQXBt3MRIvoA0I8XioRoHsHtTCQ5vrU-QqcAgVd7vScGAVFtvvjZuQ8RX2W8jnXZZv8F7Ql21BTmznX34kJvHCFf9lunjjihgPYn3EjWpCcSck7zBrLvPbR3JB3wziMkLdYtUeyEWn0ps0mdsa5NsQAptKO_7KDHMiMvfDbDe-Xef_H6tFD22uWEX4WMaOE69ssN4ZAzPJeemJXHM9igvaEP6orUrjlCc-MRoH0gJTXCzpec13jhWXO7F09-OcpXayB1Lbhlv_CsjD6vCZwiAGotkvHB4tHTyzkNe3_aqP6nZ_Q5QNhgpjBfoTsav-4Ef6bL25OQyPb3ZM24wBV2gi5vzK7gzLId4AkKWWGbD0gbi-MqYaMtEzmbS08pMaedfCeh8T7rVl650Clm6SLZ9k9XNNHyfDBD0NBdjS-6PvUHvNIn6CUU0QS-nxnN6dlr1QMoQ-c0H1tOJR1n_WHCv11aOAp4I0xQbVSEKVT_OfvVSiTEw_WThfJVkUlJPMIZdjLToMm9xvFjYIeaS1GTgBFm5]--></g></svg>