<?xml version="1.0" encoding="us-ascii" standalone="no"?><svg xmlns="http://www.w3.org/2000/svg" xmlns:xlink="http://www.w3.org/1999/xlink" contentStyleType="text/css" height="1509px" preserveAspectRatio="none" style="width:863px;height:1509px;background:#FFFFFF;" version="1.1" viewBox="0 0 863 1509" width="863px" zoomAndPan="magnify"><defs/><g><rect fill="none" height="22.6406" style="stroke:none;stroke-width:1.0;" width="830" x="15" y="12.4551"/><ellipse cx="212" cy="50.0957" fill="#222222" rx="10" ry="10" style="stroke:#222222;stroke-width:1.0;"/><rect fill="#F1F1F1" height="65.2813" rx="12.5" ry="12.5" style="stroke:#181818;stroke-width:0.5;" width="169" x="127.5" y="80.0957"/><text fill="#000000" font-family="sans-serif" font-size="12" lengthAdjust="spacing" textLength="145" x="137.5" y="102.5527">&#1057;&#1075;&#1077;&#1085;&#1077;&#1088;&#1080;&#1088;&#1086;&#1074;&#1072;&#1090;&#1100; &#1082;&#1083;&#1102;&#1095;&#1077;&#1074;&#1091;&#1102;</text><text fill="#000000" font-family="sans-serif" font-size="12" lengthAdjust="spacing" textLength="134" x="137.5" y="117.6465">&#1087;&#1072;&#1088;&#1091; (&#1043;&#1054;&#1057;&#1058; 34.10-2012,</text><text fill="#000000" font-family="sans-serif" font-size="12" lengthAdjust="spacing" textLength="149" x="137.5" y="132.7402">&#1087;&#1072;&#1088;&#1072;&#1084;&#1077;&#1090;&#1088;&#1099; &#1087;&#1086;&#1076;&#1087;&#1080;&#1089;&#1080;: TCA)</text><rect fill="#F1F1F1" height="50.1875" rx="12.5" ry="12.5" style="stroke:#181818;stroke-width:0.5;" width="167" x="128.5" y="165.377"/><text fill="#000000" font-family="sans-serif" font-size="12" lengthAdjust="spacing" textLength="147" x="138.5" y="187.834">&#1057;&#1092;&#1086;&#1088;&#1084;&#1080;&#1088;&#1086;&#1074;&#1072;&#1090;&#1100; &#1079;&#1072;&#1087;&#1088;&#1086;&#1089; &#1085;&#1072;</text><text fill="#000000" font-family="sans-serif" font-size="12" lengthAdjust="spacing" textLength="85" x="138.5" y="202.9277">&#1074;&#1099;&#1087;&#1091;&#1089;&#1082; &#1057;&#1050;&#1055;&#1069;&#1055;</text><rect fill="#F1F1F1" height="50.1875" rx="12.5" ry="12.5" style="stroke:#181818;stroke-width:0.5;" width="201" x="111.5" y="235.5645"/><text fill="#000000" font-family="sans-serif" font-size="12" lengthAdjust="spacing" textLength="120" x="121.5" y="258.0215">&#1054;&#1090;&#1087;&#1088;&#1072;&#1074;&#1080;&#1090;&#1100; &#1079;&#1072;&#1087;&#1088;&#1086;&#1089; &#1085;&#1072;</text><text fill="#000000" font-family="sans-serif" font-size="12" lengthAdjust="spacing" textLength="181" x="121.5" y="273.1152">&#1074;&#1099;&#1087;&#1091;&#1089;&#1082; &#1057;&#1050;&#1055;&#1069;&#1055; &#1040;&#1076;&#1084;&#1080;&#1085;&#1080;&#1089;&#1090;&#1088;&#1072;&#1090;&#1086;&#1088;&#1091;</text><rect fill="#F1F1F1" height="50.1875" rx="12.5" ry="12.5" style="stroke:#181818;stroke-width:0.5;" width="117" x="153.5" y="553.8105"/><text fill="#000000" font-family="sans-serif" font-size="12" lengthAdjust="spacing" textLength="97" x="163.5" y="576.2676">&#1055;&#1086;&#1083;&#1091;&#1095;&#1080;&#1090;&#1100; &#1086;&#1096;&#1080;&#1073;&#1082;&#1091;</text><text fill="#000000" font-family="sans-serif" font-size="12" lengthAdjust="spacing" textLength="75" x="163.5" y="591.3613">&#1087;&#1088;&#1086;&#1074;&#1077;&#1088;&#1082;&#1080; &#1069;&#1055;</text><path d="M20,613.998 L20,673.0527 A0,0 0 0 0 20,673.0527 L181,673.0527 A0,0 0 0 0 181,673.0527 L181,647.5254 L201,643.5254 L181,639.5254 L181,623.998 L171,613.998 L20,613.998 A0,0 0 0 0 20,613.998 " fill="#FEFFDD" style="stroke:#181818;stroke-width:0.5;"/><path d="M171,613.998 L171,623.998 L181,623.998 L171,613.998 " fill="#FEFFDD" style="stroke:#181818;stroke-width:0.5;"/><text fill="#000000" font-family="sans-serif" font-size="13" lengthAdjust="spacing" textLength="107" x="26" y="632.4932">&#1055;&#1086;&#1083;&#1091;&#1095;&#1077;&#1085;&#1072; &#1086;&#1096;&#1080;&#1073;&#1082;&#1072;</text><text fill="#000000" font-family="sans-serif" font-size="13" lengthAdjust="spacing" textLength="140" x="26" y="648.8447">&#1087;&#1088;&#1086;&#1074;&#1077;&#1088;&#1082;&#1080; &#1069;&#1055; &#1074; &#1079;&#1072;&#1087;&#1088;&#1086;&#1089;&#1077;</text><text fill="#000000" font-family="sans-serif" font-size="13" lengthAdjust="spacing" textLength="109" x="26" y="665.1963">&#1085;&#1072; &#1074;&#1099;&#1087;&#1091;&#1089;&#1082; &#1057;&#1050;&#1055;&#1069;&#1055;</text><ellipse cx="212" cy="643.5254" fill="none" rx="11" ry="11" style="stroke:#222222;stroke-width:1.0;"/><ellipse cx="212" cy="643.5254" fill="#222222" rx="6" ry="6" style="stroke:#222222;stroke-width:1.0;"/><rect fill="#F1F1F1" height="65.2813" rx="12.5" ry="12.5" style="stroke:#181818;stroke-width:0.5;" width="127" x="148.5" y="1013.8652"/><text fill="#000000" font-family="sans-serif" font-size="12" lengthAdjust="spacing" textLength="97" x="158.5" y="1036.3223">&#1055;&#1086;&#1083;&#1091;&#1095;&#1080;&#1090;&#1100; &#1086;&#1096;&#1080;&#1073;&#1082;&#1091;</text><text fill="#000000" font-family="sans-serif" font-size="12" lengthAdjust="spacing" textLength="104" x="158.5" y="1051.416">&#1087;&#1088;&#1086;&#1074;&#1077;&#1088;&#1082;&#1080; &#1079;&#1072;&#1087;&#1088;&#1086;&#1089;&#1072;</text><text fill="#000000" font-family="sans-serif" font-size="12" lengthAdjust="spacing" textLength="102" x="158.5" y="1066.5098">&#1085;&#1072; &#1074;&#1099;&#1087;&#1091;&#1089;&#1082; &#1057;&#1050;&#1055;&#1069;&#1055;</text><path d="M49,1089.1465 L49,1148.2012 A0,0 0 0 0 49,1148.2012 L181,1148.2012 A0,0 0 0 0 181,1148.2012 L181,1122.6738 L201,1118.6738 L181,1114.6738 L181,1099.1465 L171,1089.1465 L49,1089.1465 A0,0 0 0 0 49,1089.1465 " fill="#FEFFDD" style="stroke:#181818;stroke-width:0.5;"/><path d="M171,1089.1465 L171,1099.1465 L181,1099.1465 L171,1089.1465 " fill="#FEFFDD" style="stroke:#181818;stroke-width:0.5;"/><text fill="#000000" font-family="sans-serif" font-size="13" lengthAdjust="spacing" textLength="105" x="55" y="1107.6416">&#1055;&#1086;&#1083;&#1091;&#1095;&#1080;&#1090;&#1100; &#1086;&#1096;&#1080;&#1073;&#1082;&#1091;</text><text fill="#000000" font-family="sans-serif" font-size="13" lengthAdjust="spacing" textLength="107" x="55" y="1123.9932">&#1087;&#1088;&#1086;&#1074;&#1077;&#1088;&#1082;&#1080; &#1079;&#1072;&#1087;&#1088;&#1086;&#1089;&#1072;</text><text fill="#000000" font-family="sans-serif" font-size="13" lengthAdjust="spacing" textLength="109" x="55" y="1140.3447">&#1085;&#1072; &#1074;&#1099;&#1087;&#1091;&#1089;&#1082; &#1057;&#1050;&#1055;&#1069;&#1055;</text><ellipse cx="212" cy="1118.6738" fill="none" rx="11" ry="11" style="stroke:#222222;stroke-width:1.0;"/><ellipse cx="212" cy="1118.6738" fill="#222222" rx="6" ry="6" style="stroke:#222222;stroke-width:1.0;"/><rect fill="#F1F1F1" height="50.1875" rx="12.5" ry="12.5" style="stroke:#181818;stroke-width:0.5;" width="166" x="129" y="1378.498"/><text fill="#000000" font-family="sans-serif" font-size="12" lengthAdjust="spacing" textLength="146" x="139" y="1400.9551">&#1055;&#1086;&#1083;&#1091;&#1095;&#1080;&#1090;&#1100; &#1087;&#1086;&#1076;&#1090;&#1074;&#1077;&#1088;&#1078;&#1076;&#1077;&#1085;&#1080;&#1077;</text><text fill="#000000" font-family="sans-serif" font-size="12" lengthAdjust="spacing" textLength="95" x="139" y="1416.0488">&#1040;&#1076;&#1084;&#1080;&#1085;&#1080;&#1089;&#1090;&#1088;&#1072;&#1090;&#1086;&#1088;&#1072;</text><path d="M61,1438.6855 L61,1497.7402 A0,0 0 0 0 61,1497.7402 L181,1497.7402 A0,0 0 0 0 181,1497.7402 L181,1472.2129 L201,1468.2129 L181,1464.2129 L181,1448.6855 L171,1438.6855 L61,1438.6855 A0,0 0 0 0 61,1438.6855 " fill="#FEFFDD" style="stroke:#181818;stroke-width:0.5;"/><path d="M171,1438.6855 L171,1448.6855 L181,1448.6855 L171,1438.6855 " fill="#FEFFDD" style="stroke:#181818;stroke-width:0.5;"/><text fill="#000000" font-family="sans-serif" font-size="13" lengthAdjust="spacing" textLength="95" x="67" y="1457.1807">&#1055;&#1086;&#1076;&#1090;&#1074;&#1077;&#1088;&#1078;&#1076;&#1077;&#1085;&#1080;&#1077;</text><text fill="#000000" font-family="sans-serif" font-size="13" lengthAdjust="spacing" textLength="99" x="67" y="1473.5322">&#1040;&#1076;&#1084;&#1080;&#1085;&#1080;&#1089;&#1090;&#1088;&#1072;&#1090;&#1086;&#1088;&#1072;</text><text fill="#000000" font-family="sans-serif" font-size="13" lengthAdjust="spacing" textLength="60" x="67" y="1489.8838">&#1087;&#1086;&#1083;&#1091;&#1095;&#1077;&#1085;&#1086;;</text><ellipse cx="212" cy="1468.2129" fill="none" rx="11" ry="11" style="stroke:#222222;stroke-width:1.0;"/><ellipse cx="212" cy="1468.2129" fill="#222222" rx="6" ry="6" style="stroke:#222222;stroke-width:1.0;"/><line style="stroke:#000000;stroke-width:1.5;" x1="15" x2="15" y1="12.4551" y2="1497.7402"/><rect fill="#F1F1F1" height="50.1875" rx="12.5" ry="12.5" style="stroke:#181818;stroke-width:0.5;" width="175" x="633" y="305.752"/><text fill="#000000" font-family="sans-serif" font-size="12" lengthAdjust="spacing" textLength="155" x="643" y="328.209">&#1055;&#1086;&#1083;&#1091;&#1095;&#1080;&#1090;&#1100; &#1079;&#1072;&#1087;&#1088;&#1086;&#1089; &#1085;&#1072; &#1074;&#1099;&#1087;&#1091;&#1089;&#1082;</text><text fill="#000000" font-family="sans-serif" font-size="12" lengthAdjust="spacing" textLength="155" x="643" y="343.3027">&#1057;&#1050;&#1055;&#1069;&#1055; &#1086;&#1090; &#1074;&#1099;&#1079;&#1099;&#1074;&#1072;&#1102;&#1097;&#1077;&#1081; &#1040;&#1057;</text><rect fill="#F1F1F1" height="50.1875" rx="12.5" ry="12.5" style="stroke:#181818;stroke-width:0.5;" width="179" x="631" y="375.9395"/><text fill="#000000" font-family="sans-serif" font-size="12" lengthAdjust="spacing" textLength="159" x="641" y="398.3965">&#1055;&#1088;&#1086;&#1074;&#1077;&#1088;&#1080;&#1090;&#1100; &#1069;&#1055; &#1074; &#1079;&#1072;&#1087;&#1088;&#1086;&#1089;&#1077; &#1085;&#1072;</text><text fill="#000000" font-family="sans-serif" font-size="12" lengthAdjust="spacing" textLength="85" x="641" y="413.4902">&#1074;&#1099;&#1087;&#1091;&#1089;&#1082; &#1057;&#1050;&#1055;&#1069;&#1055;</text><rect fill="#F1F1F1" height="35.0938" rx="12.5" ry="12.5" style="stroke:#181818;stroke-width:0.5;" width="188" x="626.5" y="498.7168"/><text fill="#000000" font-family="sans-serif" font-size="12" lengthAdjust="spacing" textLength="168" x="636.5" y="521.1738">&#1042;&#1077;&#1088;&#1085;&#1091;&#1090;&#1100; &#1086;&#1096;&#1080;&#1073;&#1082;&#1091; &#1087;&#1088;&#1086;&#1074;&#1077;&#1088;&#1082;&#1080; &#1069;&#1055;</text><polygon fill="#F1F1F1" points="674,446.127,767,446.127,779,459.9629,767,473.7988,674,473.7988,662,459.9629,674,446.127" style="stroke:#181818;stroke-width:0.5;"/><text fill="#000000" font-family="sans-serif" font-size="11" lengthAdjust="spacing" textLength="14" x="724.5" y="485.2178">&#1044;&#1072;</text><text fill="#000000" font-family="sans-serif" font-size="11" lengthAdjust="spacing" textLength="88" x="674" y="457.5459">&#1055;&#1088;&#1080; &#1087;&#1088;&#1086;&#1074;&#1077;&#1088;&#1082;&#1077; &#1069;&#1055;</text><text fill="#000000" font-family="sans-serif" font-size="11" lengthAdjust="spacing" textLength="93" x="674" y="471.3818">&#1074;&#1086;&#1079;&#1085;&#1080;&#1082;&#1083;&#1072; &#1086;&#1096;&#1080;&#1073;&#1082;&#1072;?</text><rect fill="#F1F1F1" height="80.375" rx="12.5" ry="12.5" style="stroke:#181818;stroke-width:0.5;" width="205" x="618" y="737.3057"/><text fill="#000000" font-family="sans-serif" font-size="12" lengthAdjust="spacing" textLength="172" x="628" y="759.7627">&#1055;&#1088;&#1086;&#1074;&#1077;&#1088;&#1080;&#1090;&#1100; &#1085;&#1072;&#1083;&#1080;&#1095;&#1080;&#1077; &#1074; &#1079;&#1072;&#1087;&#1088;&#1086;&#1089;&#1077;</text><text fill="#000000" font-family="sans-serif" font-size="12" lengthAdjust="spacing" textLength="185" x="628" y="774.8564">&#1085;&#1072; &#1074;&#1099;&#1087;&#1091;&#1089;&#1082; &#1057;&#1050;&#1055;&#1069;&#1055; &#1088;&#1072;&#1089;&#1096;&#1080;&#1088;&#1077;&#1085;&#1080;&#1103; &#1089;</text><text fill="#000000" font-family="sans-serif" font-size="12" lengthAdjust="spacing" textLength="125" x="628" y="789.9502">OID 1.2.643.1.1.1.1.1 &#1080;</text><text fill="#000000" font-family="sans-serif" font-size="12" lengthAdjust="spacing" textLength="184" x="628" y="805.0439">&#1089;&#1090;&#1088;&#1086;&#1082;&#1086;&#1074;&#1099;&#1084; &#1079;&#1085;&#1072;&#1095;&#1077;&#1085;&#1080;&#1077;&#1084; "IsAdmin"</text><path d="M442.5,902.1074 L442.5,993.8652 A0,0 0 0 0 442.5,993.8652 L614.5,993.8652 A0,0 0 0 0 614.5,993.8652 L614.5,951.9863 L634.5,947.9863 L614.5,943.9863 L614.5,912.1074 L604.5,902.1074 L442.5,902.1074 A0,0 0 0 0 442.5,902.1074 " fill="#FEFFDD" style="stroke:#181818;stroke-width:0.5;"/><path d="M604.5,902.1074 L604.5,912.1074 L614.5,912.1074 L604.5,902.1074 " fill="#FEFFDD" style="stroke:#181818;stroke-width:0.5;"/><text fill="#000000" font-family="sans-serif" font-size="13" lengthAdjust="spacing" textLength="133" x="448.5" y="920.6025">&#1042; &#1079;&#1072;&#1087;&#1088;&#1086;&#1089;&#1072;&#1093; &#1085;&#1072; &#1074;&#1099;&#1087;&#1091;&#1089;&#1082;</text><text fill="#000000" font-family="sans-serif" font-size="13" lengthAdjust="spacing" textLength="151" x="448.5" y="936.9541">&#1057;&#1050;&#1055;&#1069;&#1055;, &#1087;&#1086;&#1089;&#1090;&#1091;&#1087;&#1072;&#1102;&#1097;&#1080;&#1093; &#1086;&#1090;</text><text fill="#000000" font-family="sans-serif" font-size="13" lengthAdjust="spacing" textLength="149" x="448.5" y="953.3057">&#1086;&#1073;&#1099;&#1095;&#1085;&#1099;&#1093; &#1087;&#1086;&#1083;&#1100;&#1079;&#1086;&#1074;&#1072;&#1090;&#1077;&#1083;&#1077;&#1081;,</text><text fill="#000000" font-family="sans-serif" font-size="13" lengthAdjust="spacing" textLength="145" x="448.5" y="969.6572">&#1085;&#1077; &#1076;&#1086;&#1083;&#1078;&#1085;&#1086; &#1089;&#1086;&#1076;&#1077;&#1088;&#1078;&#1072;&#1090;&#1100;&#1089;&#1103;</text><text fill="#000000" font-family="sans-serif" font-size="13" lengthAdjust="spacing" textLength="121" x="448.5" y="986.0088">&#1076;&#1072;&#1085;&#1085;&#1086;&#1077; &#1088;&#1072;&#1089;&#1096;&#1080;&#1088;&#1077;&#1085;&#1080;&#1077;</text><rect fill="#F1F1F1" height="50.1875" rx="12.5" ry="12.5" style="stroke:#181818;stroke-width:0.5;" width="172" x="634.5" y="922.8926"/><text fill="#000000" font-family="sans-serif" font-size="12" lengthAdjust="spacing" textLength="147" x="644.5" y="945.3496">&#1042;&#1077;&#1088;&#1085;&#1091;&#1090;&#1100; &#1086;&#1096;&#1080;&#1073;&#1082;&#1091; &#1087;&#1088;&#1086;&#1074;&#1077;&#1088;&#1082;&#1080;</text><text fill="#000000" font-family="sans-serif" font-size="12" lengthAdjust="spacing" textLength="152" x="644.5" y="960.4434">&#1079;&#1072;&#1087;&#1088;&#1086;&#1089;&#1072; &#1085;&#1072; &#1074;&#1099;&#1087;&#1091;&#1089;&#1082; &#1057;&#1050;&#1055;&#1069;&#1055;</text><polygon fill="#F1F1F1" points="646.5,837.6807,794.5,837.6807,806.5,858.4346,794.5,879.1885,646.5,879.1885,634.5,858.4346,646.5,837.6807" style="stroke:#181818;stroke-width:0.5;"/><text fill="#000000" font-family="sans-serif" font-size="11" lengthAdjust="spacing" textLength="14" x="724.5" y="890.6074">&#1044;&#1072;</text><text fill="#000000" font-family="sans-serif" font-size="11" lengthAdjust="spacing" textLength="146" x="646.5" y="849.0996">&#1042; &#1079;&#1072;&#1087;&#1088;&#1086;&#1089;&#1077; &#1085;&#1072; &#1074;&#1099;&#1087;&#1091;&#1089;&#1082; &#1057;&#1050;&#1055;&#1069;&#1055;</text><text fill="#000000" font-family="sans-serif" font-size="11" lengthAdjust="spacing" textLength="136" x="658.5" y="862.9355">&#1089;&#1086;&#1076;&#1077;&#1088;&#1078;&#1080;&#1090;&#1089;&#1103; &#1088;&#1072;&#1089;&#1096;&#1080;&#1088;&#1077;&#1085;&#1080;&#1103; &#1089;</text><text fill="#000000" font-family="sans-serif" font-size="11" lengthAdjust="spacing" textLength="107" x="658.5" y="876.7715">OID 1.2.643.1.1.1.1.1?</text><path d="M321.5,1180.2012 L321.5,1288.3105 A0,0 0 0 0 321.5,1288.3105 L600.5,1288.3105 A0,0 0 0 0 600.5,1288.3105 L600.5,1238.2559 L620.5,1234.2559 L600.5,1230.2559 L600.5,1190.2012 L590.5,1180.2012 L321.5,1180.2012 A0,0 0 0 0 321.5,1180.2012 " fill="#FEFFDD" style="stroke:#181818;stroke-width:0.5;"/><path d="M590.5,1180.2012 L590.5,1190.2012 L600.5,1190.2012 L590.5,1180.2012 " fill="#FEFFDD" style="stroke:#181818;stroke-width:0.5;"/><text fill="#000000" font-family="sans-serif" font-size="13" lengthAdjust="spacing" textLength="233" x="327.5" y="1198.6963">&#1055;&#1086;&#1076; &#1087;&#1086;&#1076;&#1090;&#1074;&#1077;&#1088;&#1078;&#1076;&#1077;&#1085;&#1080;&#1077;&#1084; &#1040;&#1076;&#1084;&#1080;&#1085;&#1080;&#1089;&#1090;&#1088;&#1072;&#1090;&#1086;&#1088;&#1072;</text><text fill="#000000" font-family="sans-serif" font-size="13" lengthAdjust="spacing" textLength="258" x="327.5" y="1215.0479">&#1087;&#1086;&#1085;&#1080;&#1084;&#1072;&#1077;&#1090;&#1089;&#1103; &#1074;&#1099;&#1095;&#1080;&#1089;&#1083;&#1077;&#1085;&#1080;&#1077; &#1040;&#1076;&#1084;&#1080;&#1085;&#1080;&#1089;&#1090;&#1088;&#1072;&#1090;&#1086;&#1088;&#1086;&#1084;</text><text fill="#000000" font-family="sans-serif" font-size="13" lengthAdjust="spacing" textLength="222" x="327.5" y="1231.3994">&#1069;&#1055; &#1076;&#1083;&#1103; &#1082;&#1083;&#1102;&#1095;&#1072; &#1087;&#1088;&#1086;&#1074;&#1077;&#1088;&#1082;&#1080; &#1069;&#1055;, &#1082;&#1086;&#1090;&#1086;&#1088;&#1099;&#1081;</text><text fill="#000000" font-family="sans-serif" font-size="13" lengthAdjust="spacing" textLength="247" x="327.5" y="1247.751">&#1089;&#1086;&#1076;&#1077;&#1088;&#1078;&#1080;&#1090;&#1089;&#1103; &#1074; &#1079;&#1072;&#1087;&#1088;&#1086;&#1089;&#1077; &#1085;&#1072; &#1074;&#1099;&#1087;&#1091;&#1089;&#1082; &#1057;&#1050;&#1055;&#1069;&#1055;</text><text fill="#000000" font-family="sans-serif" font-size="13" lengthAdjust="spacing" textLength="255" x="327.5" y="1264.1025">(&#1082;&#1086;&#1090;&#1086;&#1088;&#1099;&#1081; &#1086;&#1090;&#1087;&#1088;&#1072;&#1074;&#1083;&#1103;&#1083;&#1089;&#1103; &#1088;&#1072;&#1085;&#1077;&#1077; &#1074;&#1099;&#1079;&#1099;&#1074;&#1072;&#1102;&#1097;&#1077;&#1081;</text><text fill="#000000" font-family="sans-serif" font-size="13" lengthAdjust="spacing" textLength="22" x="327.5" y="1280.4541">&#1040;&#1057;)</text><rect fill="#F1F1F1" height="50.1875" rx="12.5" ry="12.5" style="stroke:#181818;stroke-width:0.5;" width="200" x="620.5" y="1209.1621"/><text fill="#000000" font-family="sans-serif" font-size="12" lengthAdjust="spacing" textLength="180" x="630.5" y="1231.6191">&#1057;&#1092;&#1086;&#1088;&#1084;&#1080;&#1088;&#1086;&#1074;&#1072;&#1090;&#1100; &#1087;&#1086;&#1076;&#1090;&#1074;&#1077;&#1088;&#1078;&#1076;&#1077;&#1085;&#1080;&#1077;</text><text fill="#000000" font-family="sans-serif" font-size="12" lengthAdjust="spacing" textLength="95" x="630.5" y="1246.7129">&#1040;&#1076;&#1084;&#1080;&#1085;&#1080;&#1089;&#1090;&#1088;&#1072;&#1090;&#1086;&#1088;&#1072;</text><rect fill="#F1F1F1" height="50.1875" rx="12.5" ry="12.5" style="stroke:#181818;stroke-width:0.5;" width="159" x="641" y="1308.3105"/><text fill="#000000" font-family="sans-serif" font-size="12" lengthAdjust="spacing" textLength="139" x="651" y="1330.7676">&#1042;&#1077;&#1088;&#1085;&#1091;&#1090;&#1100; &#1087;&#1086;&#1076;&#1090;&#1074;&#1077;&#1088;&#1078;&#1076;&#1077;&#1085;&#1080;&#1077;</text><text fill="#000000" font-family="sans-serif" font-size="12" lengthAdjust="spacing" textLength="95" x="651" y="1345.8613">&#1040;&#1076;&#1084;&#1080;&#1085;&#1080;&#1089;&#1090;&#1088;&#1072;&#1090;&#1086;&#1088;&#1072;</text><line style="stroke:#000000;stroke-width:1.5;" x1="316.5" x2="316.5" y1="12.4551" y2="1497.7402"/><line style="stroke:#000000;stroke-width:1.5;" x1="843.5" x2="843.5" y1="12.4551" y2="1497.7402"/><line style="stroke:#181818;stroke-width:1.0;" x1="212" x2="212" y1="60.0957" y2="80.0957"/><polygon fill="#181818" points="208,70.0957,212,80.0957,216,70.0957,212,74.0957" style="stroke:#181818;stroke-width:1.0;"/><line style="stroke:#181818;stroke-width:1.0;" x1="212" x2="212" y1="145.377" y2="165.377"/><polygon fill="#181818" points="208,155.377,212,165.377,216,155.377,212,159.377" style="stroke:#181818;stroke-width:1.0;"/><line style="stroke:#181818;stroke-width:1.0;" x1="212" x2="212" y1="215.5645" y2="235.5645"/><polygon fill="#181818" points="208,225.5645,212,235.5645,216,225.5645,212,229.5645" style="stroke:#181818;stroke-width:1.0;"/><line style="stroke:#181818;stroke-width:1.0;" x1="212" x2="212" y1="603.998" y2="632.5254"/><polygon fill="#181818" points="208,622.5254,212,632.5254,216,622.5254,212,626.5254" style="stroke:#181818;stroke-width:1.0;"/><line style="stroke:#181818;stroke-width:1.0;" x1="212" x2="212" y1="1079.1465" y2="1107.6738"/><polygon fill="#181818" points="208,1097.6738,212,1107.6738,216,1097.6738,212,1101.6738" style="stroke:#181818;stroke-width:1.0;"/><line style="stroke:#181818;stroke-width:1.0;" x1="212" x2="212" y1="1428.6855" y2="1457.2129"/><polygon fill="#181818" points="208,1447.2129,212,1457.2129,216,1447.2129,212,1451.2129" style="stroke:#181818;stroke-width:1.0;"/><line style="stroke:#181818;stroke-width:1.0;" x1="720.5" x2="720.5" y1="355.9395" y2="375.9395"/><polygon fill="#181818" points="716.5,365.9395,720.5,375.9395,724.5,365.9395,720.5,369.9395" style="stroke:#181818;stroke-width:1.0;"/><line style="stroke:#FF0000;stroke-width:1.0;" x1="720.5" x2="720.5" y1="473.7988" y2="498.7168"/><polygon fill="#FF0000" points="716.5,488.7168,720.5,498.7168,724.5,488.7168,720.5,492.7168" style="stroke:#FF0000;stroke-width:1.0;"/><line style="stroke:#181818;stroke-width:1.0;" x1="779" x2="824.5" y1="459.9629" y2="459.9629"/><polygon fill="#181818" points="820.5,576.9668,824.5,586.9668,828.5,576.9668,824.5,580.9668" style="stroke:#181818;stroke-width:1.0;"/><line style="stroke:#181818;stroke-width:1.0;" x1="824.5" x2="824.5" y1="459.9629" y2="695.0527"/><line style="stroke:#181818;stroke-width:1.0;" x1="824.5" x2="720.5" y1="695.0527" y2="695.0527"/><line style="stroke:#181818;stroke-width:1.0;" x1="720.5" x2="720.5" y1="426.127" y2="446.127"/><polygon fill="#181818" points="716.5,436.127,720.5,446.127,724.5,436.127,720.5,440.127" style="stroke:#181818;stroke-width:1.0;"/><line style="stroke:#181818;stroke-width:1.0;" x1="720.5" x2="720.5" y1="695.0527" y2="737.3057"/><polygon fill="#181818" points="716.5,727.3057,720.5,737.3057,724.5,727.3057,720.5,731.3057" style="stroke:#181818;stroke-width:1.0;"/><text fill="#000000" font-family="sans-serif" font-size="11" lengthAdjust="spacing" textLength="19" x="724.5" y="717.3887">&#1053;&#1077;&#1090;</text><line style="stroke:#FF0000;stroke-width:1.0;" x1="720.5" x2="720.5" y1="879.1885" y2="922.8926"/><polygon fill="#FF0000" points="716.5,912.8926,720.5,922.8926,724.5,912.8926,720.5,916.8926" style="stroke:#FF0000;stroke-width:1.0;"/><line style="stroke:#181818;stroke-width:1.0;" x1="806.5" x2="818.5" y1="858.4346" y2="858.4346"/><polygon fill="#181818" points="814.5,1012.7773,818.5,1022.7773,822.5,1012.7773,818.5,1016.7773" style="stroke:#181818;stroke-width:1.0;"/><line style="stroke:#181818;stroke-width:1.0;" x1="818.5" x2="818.5" y1="858.4346" y2="1170.2012"/><line style="stroke:#181818;stroke-width:1.0;" x1="818.5" x2="720.5" y1="1170.2012" y2="1170.2012"/><line style="stroke:#181818;stroke-width:1.0;" x1="720.5" x2="720.5" y1="1170.2012" y2="1209.1621"/><polygon fill="#181818" points="716.5,1199.1621,720.5,1209.1621,724.5,1199.1621,720.5,1203.1621" style="stroke:#181818;stroke-width:1.0;"/><line style="stroke:#181818;stroke-width:1.0;" x1="720.5" x2="720.5" y1="817.6807" y2="837.6807"/><polygon fill="#181818" points="716.5,827.6807,720.5,837.6807,724.5,827.6807,720.5,831.6807" style="stroke:#181818;stroke-width:1.0;"/><line style="stroke:#181818;stroke-width:1.0;" x1="720.5" x2="720.5" y1="1259.3496" y2="1308.3105"/><polygon fill="#181818" points="716.5,1298.3105,720.5,1308.3105,724.5,1298.3105,720.5,1302.3105" style="stroke:#181818;stroke-width:1.0;"/><line style="stroke:#181818;stroke-width:1.0;" x1="212" x2="212" y1="285.752" y2="290.752"/><line style="stroke:#181818;stroke-width:1.0;" x1="212" x2="720.5" y1="290.752" y2="290.752"/><line style="stroke:#181818;stroke-width:1.0;" x1="720.5" x2="720.5" y1="290.752" y2="305.752"/><polygon fill="#181818" points="716.5,295.752,720.5,305.752,724.5,295.752,720.5,299.752" style="stroke:#181818;stroke-width:1.0;"/><line style="stroke:#181818;stroke-width:1.0;" x1="720.5" x2="720.5" y1="533.8105" y2="538.8105"/><line style="stroke:#181818;stroke-width:1.0;" x1="720.5" x2="212" y1="538.8105" y2="538.8105"/><line style="stroke:#181818;stroke-width:1.0;" x1="212" x2="212" y1="538.8105" y2="553.8105"/><polygon fill="#181818" points="208,543.8105,212,553.8105,216,543.8105,212,547.8105" style="stroke:#181818;stroke-width:1.0;"/><line style="stroke:#181818;stroke-width:1.0;" x1="720.5" x2="720.5" y1="973.0801" y2="998.8652"/><line style="stroke:#181818;stroke-width:1.0;" x1="720.5" x2="212" y1="998.8652" y2="998.8652"/><line style="stroke:#181818;stroke-width:1.0;" x1="212" x2="212" y1="998.8652" y2="1013.8652"/><polygon fill="#181818" points="208,1003.8652,212,1013.8652,216,1003.8652,212,1007.8652" style="stroke:#181818;stroke-width:1.0;"/><line style="stroke:#181818;stroke-width:1.0;" x1="720.5" x2="720.5" y1="1358.498" y2="1363.498"/><line style="stroke:#181818;stroke-width:1.0;" x1="720.5" x2="212" y1="1363.498" y2="1363.498"/><line style="stroke:#181818;stroke-width:1.0;" x1="212" x2="212" y1="1363.498" y2="1378.498"/><polygon fill="#181818" points="208,1368.498,212,1378.498,216,1368.498,212,1372.498" style="stroke:#181818;stroke-width:1.0;"/><text fill="#000000" font-family="sans-serif" font-size="18" lengthAdjust="spacing" textLength="144" x="93.75" y="31.1406">&#1042;&#1099;&#1079;&#1099;&#1074;&#1072;&#1102;&#1097;&#1072;&#1103; &#1040;&#1057;</text><text fill="#000000" font-family="sans-serif" font-size="18" lengthAdjust="spacing" textLength="129" x="515.5" y="31.1406">&#1040;&#1076;&#1084;&#1080;&#1085;&#1080;&#1089;&#1090;&#1088;&#1072;&#1090;&#1086;&#1088;</text><!--SRC=[lLRFJnDH4BxlN_625qXAGu5ue8c6w8MJ5s_gmOGIIRGOwB47sahGb811JoRImDragLrPQRlz5-RzHtup-_DrVxG4TKbBz-sRRxwPRsRsDUbST-a6dpxP-bH_mlUPeizqsRIQ-3UW4Raq9bUtT5iVuccRF7tOjF0qtrBXEcYytczKvUS6NT9FSW3Z0CB5nnEZjZvHT4j3M1_ZSLztzAaOq0HF3tL7BT8Nke3rbLfRBrTMbbTNAgkbn1QomSzXPhhBInu8JvWikHlg-PFDfOY0_i2yEHhJ_GqW9hoaMme4RH-yZx0ceDEYMmNttwX7FwWNWbqW2HDntWTS9emgmb7vYTMTgbMSU9z23p4C0NoSIo3fsoUJyE_fjhyXgPz3lqM_CCnUa2bVDF4Yndt36pbpvcrt1t8ofgjysm3wbX6mwsKT2nwW4JHN1SVWwO-ukSQj_NX9DTxKwWB5r_AB1_krxLVBZ-WhsTLeUOFE1NKC5a8vWa0vJVbrLSoEhrab7Vj8fJ_fnTWxmwNVANllpPNwNgEctjPs6iQgmCMU7L_cH8hIkxESfmLCsqqNK49COtEjlYrahU1cTsUEweLatxbf2-eC_b40BkUNgoEJS1599JvRd1hySeJ9cT8jCNoszLHLoglbX-jhvKhufv0TUHemzf0lJz17IchI3b8EGbXQs3hOt7wtMrz8rFPvLbyKfX5hFB4uy5yIUejPtfNwF-cCoCo8oIwCAVQLNS3J6RBrKSwiYYmYx9ACTn6d8xEVszDb0CmoqyQZQzs5McDy7_blXQ4-WUTWx2EfGnvs9Mkgvg7OW3T3Z35vfZhokc1zJAC1mXdpRXYdXKkqbj4f_s_OcE9PypRvNnbGizZUcV5zHzCSxzNSSuASBR2t7zJ3m50u7pZim7J695E30cIUF0MuCH0ZiCK8gNE2AS8f4WrQKknZVv3cmtaqYW7bBJ60Z6Vn-SpEVfkKU8SN75wwE454A9d3BVlmC5FGnIadSXCUmK0Jdt1qSX_BEoDzkea3H9SjMQagIKt8N6dK7AhFF25dTFQz78QjMbXl-U2p79Zr5fz1lAgHoJy0]--></g></svg>